<?xml version="1.0" standalone="no"?>
<!DOCTYPE svg PUBLIC "-//W3C//DTD SVG 1.1//EN" "http://www.w3.org/Graphics/SVG/1.1/DTD/svg11.dtd" >
<!--
2013-9-30: Created.
-->
<svg>
<metadata>
Created by iconfont
</metadata>
<defs>

<font id="iconfont" horiz-adv-x="1024" >
  <font-face
    font-family="iconfont"
    font-weight="500"
    font-stretch="normal"
    units-per-em="1024"
    ascent="896"
    descent="-128"
  />
    <missing-glyph />
    
    <glyph glyph-name="gouxuan" unicode="&#58880;" d="M446.03631331 93.66824892c-8.1657403-11.18812468-20.08884052-18.02678489-32.91777231-18.89726694-0.91761474-0.05744298-1.82491923-0.05744298-2.73958819-0.05744299-11.86565725 0-23.31890337 5.12420825-31.9397688 14.41818753l-245.8854048 265.29671276c-18.41415677 19.82666489-19.0519211 52.7959886-1.40808942 73.52112056 17.64088592 20.76195438 46.86757867 21.44390565 65.2920457 1.58925574l209.92462753-226.4490576 400.98881052 504.35376762c16.20039276 22.22159519 45.30925376 25.39126927 64.99599345 7.14944144 19.68673967-18.27423157 22.51028299-51.05649738 6.3172547-73.24716173L446.03336753 93.66972181999995 446.03631331 93.66824892z"  horiz-adv-x="1024" />

    
    <glyph glyph-name="facebook1" unicode="&#59258;" d="M586.67370668 810.67050665c-88.369433 0-160.00704-71.637607-160.00704-160.00704l0-96.00832-127.99744 0 0-127.99744 127.99744 0 0-447.99104 127.99744 0 0 447.99104 143.992 0 32.0096 127.99744-176.0016 0 0 96.00832c0 17.673887 14.335713 32.0096 32.0096 32.0096l160.00704 0 0 127.99744-160.00704 0z"  horiz-adv-x="1024" />

    
    <glyph glyph-name="back" unicode="&#58978;" d="M608 160c-6.4 0-19.2 0-25.6 6.4l-192 192C384 371.2 384 396.8 390.4 409.6l192 192c12.8 12.8 32 12.8 44.8 0s12.8-32 0-44.8L460.8 384l166.4-166.4c12.8-12.8 12.8-32 0-44.8C627.2 160 614.4 160 608 160z"  horiz-adv-x="1024" />

    
    <glyph glyph-name="renminbi" unicode="&#58916;" d="M511.996414 895.87311c-282.285155 0-511.975441-229.640144-511.975441-511.930415 0-282.303574 229.690286-511.941672 511.975441-511.941672 282.286178 0 511.982604 229.639121 511.982604 511.941672C1023.979018 666.232966 794.282592 895.87311 511.996414 895.87311L511.996414 895.87311zM511.996414-45.02624c-236.533135 0-428.955632 192.439894-428.955632 428.962795S275.46328 812.876838 511.996414 812.876838c236.540298 0 428.962795-192.416358 428.962795-428.940282S748.536712-45.02624 511.996414-45.02624L511.996414-45.02624zM655.047458 664.737916l-91.330078-168.284751c-24.376177-45.590338-39.235606-75.92318-44.698015-90.940199l-1.571798 0C501.393939 442.042951 456.064544 528.425344 381.441986 664.737916l-85.909625 0 159.747307-274.381138L324.305685 390.356778l0-60.657498 153.526629 0 0-83.552951-153.526629 0 0-61.376882 153.526629 0 0-121.68134 76.17389 0L554.006204 184.775586l148.099013 0 0 61.374836L554.00518 246.150422l0 83.548858 148.099013 0 0 60.657498L575.007517 390.356778l161.296593 274.381138L655.047458 664.737916 655.047458 664.737916zM655.047458 664.737916"  horiz-adv-x="1024" />

    
    <glyph glyph-name="shuaxin" unicode="&#59036;" d="M1017.856 351.2l-185.408 233.536c-20.48 25.6-58.368 25.6-78.848 0L569.216 351.2C554.88 333.792 568.256 307.168 590.784 307.168l72.704 0c-2.048-136.192-2.048-309.312-240.704-447.552-6.144-4.096-3.072-13.312 4.096-12.288 456.768 70.656 493.632 376.896 494.656 458.816l75.776 0C1019.904 307.168 1032.192 333.792 1017.856 351.2L1017.856 351.2zM434.048 292.832 361.344 292.832c2.048 136.192 2.048 309.312 240.704 447.552 6.144 4.096 3.072 13.312-4.096 12.288C141.12 682.016 104.256 374.752 103.232 293.856L27.456 293.856c-22.528 0-35.84-26.624-21.504-44.032l185.344-233.536c20.48-25.6 58.368-25.6 78.848 0l185.408 233.536C468.864 266.208 456.576 292.832 434.048 292.832L434.048 292.832zM434.048 292.832"  horiz-adv-x="1025" />

    
    <glyph glyph-name="htmal5icon05" unicode="&#58913;" d="M817.597093 540.384723l-307.71022-192.319144-307.711244 192.319144 0 76.928067 307.711244-192.319144 307.71022 192.319144L817.597093 540.384723zM817.597093 694.239833l-615.421464 0c-42.310641 0-76.927043-34.617425-76.927043-76.927043l0-461.566354c0-42.310641 34.617425-76.927043 76.927043-76.927043l615.421464 0c42.310641 0 76.928067 34.617425 76.928067 76.927043l0 461.566354C894.524137 659.622408 859.906711 694.239833 817.597093 694.239833z"  horiz-adv-x="1024" />

    
    <glyph glyph-name="htmal5icon35" unicode="&#58951;" d="M124.56604 636.408707l0-84.975347 764.78119 0 0 84.975347L124.56604 636.408707zM124.56604 338.99397l764.78119 0 0 84.97637L124.56604 423.97034 124.56604 338.99397zM124.56604 126.55458l764.78119 0 0 84.97637L124.56604 211.53095 124.56604 126.55458z"  horiz-adv-x="1024" />

    
    <glyph glyph-name="checkbg" unicode="&#58883;" d="M512 759.00000029C304.8875 759.00000029 136.99999971 591.1125 136.99999971 384 136.99999971 176.88750000000005 304.8875 8.999999709999997 512 8.999999709999997 719.1125 8.999999709999997 887.00000029 176.88750000000005 887.00000029 384 887.00000029 591.1125 719.1125 759.00000029 512 759.00000029ZM470.88125 196.50000029L290.16874971 332.04374971000004 335.16874971 392.02500029 454.47499971 302.54999999999995 675.95000029 587.02499971 737 543.4500002899999 470.88125 196.50000029Z"  horiz-adv-x="1024" />

    
    <glyph glyph-name="jiantou" unicode="&#58904;" d="M898.76888144 230.80664847000003c0-11.66903069-4.77392016-21.78442612-14.32051894-30.34991215-9.54784032-8.56424448-20.90142439-12.81655998-34.06075343-12.75819046L173.05352906 187.69854707000002c-13.09474938 0-24.44833345 4.2523155-34.05951068 12.75819046-9.61117844 8.5071153-14.3850986 18.62251073-14.32051893 30.34991214 0.06457966 11.72367557 4.83849982 21.84155409 14.32051893 30.34742784l338.66641863 301.75919764c9.54784032 8.5071153 20.90018285 12.759432 34.06075342 12.759432 13.15932782 0 24.51167035-4.25355825 34.05951068-12.759432l338.66641862-301.75919764C893.99496127 252.64820255999996 898.76888144 242.53032402999997 898.76888144 230.80664847000003z"  horiz-adv-x="1024" />

    
    <glyph glyph-name="dakaihuihua" unicode="&#58954;" d="M230.40990877 155.72416646C179.51281021 219.51513488 149.0894586 300.36146697000004 149.0894586 388.31354957 149.0894586 594.4354054 316.1842373 761.53018488 522.30609237 761.53018488 728.42794898 761.53018488 895.5227269 594.4354054 895.5227269 388.31354957 895.5227269 182.19169525999996 728.42794898 15.096914269999957 522.30609237 15.096914269999957 471.18549944 15.096914269999957 422.46545202 25.374866089999955 378.09963428 43.97708167999997L128.4772731-5.515269699999976 230.40990877 155.72416646ZM308.25355095 425.94779806L727.73153387 425.94779806C754.20825361 425.94779806 775.67187475 447.41141996 775.67187475 473.88813892 775.67187475 500.36485866 754.20825361 521.82847978 727.73153387 521.82847978L308.25355095 521.82847978C281.77683199 521.82847978 260.31321009 500.36485866 260.31321009 473.88813892 260.31321009 447.41141996 281.77683199 425.94779806 308.25355095 425.94779806ZM392.14914784 234.18643462L667.80610818 234.18643462C694.28282714 234.18643462 715.74644905 255.65005652000002 715.74644905 282.12677547 715.74644905 308.60349442999996 694.28282714 330.06711634 667.80610818 330.06711634L392.14914784 330.06711634C365.67242889 330.06711634 344.20880698 308.60349442999996 344.20880698 282.12677547 344.20880698 255.65005652000002 365.67242889 234.18643462 392.14914784 234.18643462Z"  horiz-adv-x="1024" />

    
    <glyph glyph-name="yuanxingdecircular221" unicode="&#59162;" d="M882.78857422 384c0 204.77641687-166.01215735 370.78857422-370.78857422 370.78857422C307.22358313 754.78857422 141.21142578 588.77641687 141.21142578 384c0-204.77641687 166.01215735-370.78857422 370.78857422-370.78857422C716.77641687 13.211425780000013 882.78857422 179.22358312999995 882.78857422 384zM326.60571289 400.85402589l168.54026122 0 0 235.95636555 33.70805252 0 0-269.66441733-202.24831301 0L326.60571289 400.85402589z"  horiz-adv-x="1024" />

    
    <glyph glyph-name="iconset0456" unicode="&#59215;" d="M977.066667 524.8c-14.933333 55.466667-81.066667 91.733333-172.8 106.666667 12.8-17.066667 25.6-34.133333 36.266667-53.333333 51.2-14.933333 85.333333-38.4 93.866667-66.133333 4.266667-17.066667 0-36.266667-12.8-57.6-12.8-23.466667-38.4-49.066667-72.533333-76.8 0 2.133333 0 4.266667 0 4.266667 0 187.733333-153.6 341.333333-341.333333 341.333333C324.266667 725.333333 170.666667 571.733333 170.666667 384c0-57.6 14.933333-113.066667 40.533333-160-68.266667 12.8-113.066667 40.533333-123.733333 72.533333-4.266667 17.066667 0 36.266667 12.8 57.6C106.666667 366.933333 117.333333 379.733333 128 392.533333c0 21.333333 2.133333 44.8 6.4 64-68.266667-55.466667-104.533333-117.333333-89.6-170.666667 17.066667-59.733333 91.733333-98.133333 196.266667-110.933333C305.066667 93.866667 401.066667 42.666667 512 42.666667c166.4 0 307.2 121.6 334.933333 279.466667C942.933333 386.133333 996.266667 460.8 977.066667 524.8zM512 85.333333c-81.066667 0-155.733333 32-209.066667 85.333333 6.4 0 14.933333 0 21.333333 0 74.666667 0 157.866667 10.666667 243.2 32 85.333333 21.333333 162.133333 53.333333 226.133333 87.466667C757.333333 170.666667 644.266667 85.333333 512 85.333333zM808.533333 347.733333c-61.866667-38.4-147.2-76.8-249.6-102.4-78.933333-21.333333-160-32-232.533333-32-21.333333 0-40.533333 2.133333-59.733333 2.133333C232.533333 264.533333 213.333333 322.133333 213.333333 384c0 164.266667 134.4 298.666667 298.666667 298.666667 164.266667 0 298.666667-134.4 298.666667-298.666667C810.666667 371.2 810.666667 360.533333 808.533333 347.733333z"  horiz-adv-x="1024" />

    
    <glyph glyph-name="guanbi" unicode="&#58890;" d="M912.79907288 393.31653105l326.9975939 326.99759388c10.03220878 10.03428978 10.03220878 26.29970034 0 36.33399012-10.03428978 10.03428978-26.29970034 10.03428978-36.33399012 0L876.46716376 429.65052231 549.46956989 756.6460352c-10.03220878 10.03428978-26.29970034 10.03428978-36.33399013 0-10.03220878-10.03220878-10.03220878-26.29762048 0-36.33399013l326.9975939-326.99759387L513.13557977 66.31893830000001c-10.03220878-10.03428978-10.03220878-26.29970034 0-36.33399012 10.03220878-10.03428978 26.29970034-10.03428978 36.33399013 0l326.99759387 326.9975939 326.99759388-326.9975939c10.03220878-10.03428978 26.29762048-10.03428978 36.33399012 0 10.03220878 10.03220878 10.03220878 26.29762048 0 36.33399012L912.79907288 393.31653105z"  horiz-adv-x="1756" />

    
    <glyph glyph-name="jiaobiao" unicode="&#58939;" d="M144.35210378 751.6552127l735.29579244 0L144.35210378 16.344787300000007 144.35210378 751.6552127z"  horiz-adv-x="1024" />

    
    <glyph glyph-name="dashaxiaoqudizhi01" unicode="&#58917;" d="M881.77214463 66.86601651000001l-37.3516752 0 0 462.75425244c0 12.4385669-6.60871933 23.93996836-17.3546332 30.20422148L637.47167979 670.34875576c-10.81336816 6.305625-24.17291104 6.34699688-35.02585284 0.11062529-10.85204268-6.23547246-17.54440488-17.79803261-17.54440488-30.31484677l0-573.2794169L545.13758252 66.86511738000002 545.13758252 731.04230537c0 11.75413096-5.90719482 22.72309365-15.72134062 29.19150791-9.8150458 6.46841426-22.22303291 7.57286542-33.02560899 2.9374084L200.10451484 636.0370186499999c-12.84778916-5.51236289-21.17614219-18.14879531-21.17614218-32.12891631l0-537.04298496-37.21676661 0c-6.84166114 0-12.38820117-5.54653916-12.38820117-12.38730117l0-40.29358095c0-6.84076201 5.54653916-12.38730117 12.38820117-12.38730118l740.06053858 0c6.84076201 0 12.38730117 5.54653916 12.38730117 12.38730118L894.1594458 54.47781622000002C894.1594458 61.31947734000005 888.61290664 66.86601651000001 881.77214463 66.86601651000001zM681.4806418 545.16443086c0 6.84166114 5.54564003 12.38820117 12.38820117 12.38820117l39.35371817 0c6.84166114 0 12.38820117-5.54653916 12.38820117-12.38820117l0-39.35461729c0-6.84166114-5.54653916-12.38820117-12.38820117-12.38820117L693.86974209 493.4216124c-6.84256113 0-12.38820117 5.54653916-12.38820117 12.38820117L681.4815418 545.16443086zM681.4806418 446.07141533c0 6.84166114 5.54564003 12.38820117 12.38820117 12.38820118l39.35371817 0c6.84166114 0 12.38820117-5.54653916 12.38820117-12.38820118l0-39.35551728c0-6.84166114-5.54653916-12.38820117-12.38820117-12.38820117L693.86974209 394.32769776c-6.84256113 0-12.38820117 5.54653916-12.38820117 12.38820117L681.4815418 446.07141533zM681.4806418 346.97929980000004c0 6.84076201 5.54564003 12.38730117 12.38820117 12.38730117l39.35371817 0c6.84166114 0 12.38820117-5.54653916 12.38820117-12.38730117l0-39.3564164c0-6.84076201-5.54653916-12.38730117-12.38820117-12.38730117L693.86974209 295.23558221999997c-6.84256113 0-12.38820117 5.54653916-12.38820117 12.38730118L681.4815418 346.97929980000004zM681.4806418 247.88628516000006c0 6.84076201 5.54564003 12.38730117 12.38820117 12.38730117l39.35371817 0c6.84166114 0 12.38820117-5.54653916 12.38820117-12.38730117l0-39.35641641c0-6.84076201-5.54653916-12.38730117-12.38820117-12.38730117L693.86974209 196.14256758c-6.84256113 0-12.38820117 5.54653916-12.38820117 12.38730117L681.4815418 247.88628516000006zM681.4806418 148.79327049999995c0 6.84076201 5.54564003 12.38730117 12.38820117 12.38730117l39.35371817 0c6.84166114 0 12.38820117-5.54653916 12.38820117-12.38730117l0-39.3564164c0-6.84076201-5.54653916-12.38730117-12.38820117-12.38730118L693.86974209 97.04955204999999c-6.84256113 0-12.38820117 5.54653916-12.38820117 12.38730118L681.4815418 148.79327049999995zM389.12845713 644.2574455c0 6.84166114 5.54653916 12.38820117 12.38820117 12.38820118L440.87127559 656.64564667c6.84166114 0 12.38820117-5.54653916 12.38820117-12.38820116l0-39.35461729c0-6.84166114-5.54653916-12.38820117-12.38820117-12.38820117l-39.35461729 0c-6.84166114 0-12.38820117 5.54653916-12.38820117 12.38820117L389.12845713 644.2574455zM389.12845713 545.16443086c0 6.84166114 5.54653916 12.38820117 12.38820117 12.38820117L440.87127559 557.55263115c6.84166114 0 12.38820117-5.54653916 12.38820117-12.38820117l0-39.35461729c0-6.84166114-5.54653916-12.38820117-12.38820117-12.38820117l-39.35461729 0c-6.84166114 0-12.38820117 5.54653916-12.38820117 12.38820117L389.12845713 545.16443086zM389.12845713 446.07141533c0 6.84166114 5.54653916 12.38820117 12.38820117 12.38820118L440.87127559 458.45961651c6.84166114 0 12.38820117-5.54653916 12.38820117-12.38820118l0-39.35551728c0-6.84166114-5.54653916-12.38820117-12.38820117-12.38820118l-39.35461729 0c-6.84166114 0-12.38820117 5.54653916-12.38820117 12.38820118L389.12845713 446.07141533zM389.12845713 346.97929980000004c0 6.84076201 5.54653916 12.38730117 12.38820117 12.38730117L440.87127559 359.36660185000005c6.84166114 0 12.38820117-5.54653916 12.38820117-12.38730117l0-39.35641641c0-6.84076201-5.54653916-12.38730117-12.38820117-12.38730117l-39.35461729 0c-6.84166114 0-12.38820117 5.54653916-12.38820117 12.38730117L389.12845713 346.97929980000004zM389.12845713 247.88628516000006c0 6.84076201 5.54653916 12.38730117 12.38820117 12.38730117L440.87127559 260.27358632999994c6.84166114 0 12.38820117-5.54653916 12.38820117-12.38730117l0-39.35641641c0-6.84076201-5.54653916-12.38730117-12.38820117-12.38730117l-39.35461729 0c-6.84166114 0-12.38820117 5.54653916-12.38820117 12.38730117L389.12845713 247.88628516000006zM389.12845713 148.79327049999995c0 6.84076201 5.54653916 12.38730117 12.38820117 12.38730117L440.87127559 161.18057167999996c6.84166114 0 12.38820117-5.54653916 12.38820117-12.38730118l0-39.35641639c0-6.84076201-5.54653916-12.38730117-12.38820117-12.38730118l-39.35461729 0c-6.84166114 0-12.38820117 5.54653916-12.38820117 12.38730118L389.12845713 148.79327049999995zM269.82704287 545.16443086c0 6.84166114 5.54653916 12.38820117 12.38820117 12.38820117l39.35461729 0c6.84166114 0 12.38820117-5.54653916 12.38820117-12.38820117l0-39.35461729c0-6.84166114-5.54653916-12.38820117-12.38820117-12.38820117l-39.35461729 0c-6.84166114 0-12.38820117 5.54653916-12.38820117 12.38820117L269.82704287 545.16443086zM269.82704287 446.07141533c0 6.84166114 5.54653916 12.38820117 12.38820117 12.38820118l39.35461729 0c6.84166114 0 12.38820117-5.54653916 12.38820117-12.38820118l0-39.35551728c0-6.84166114-5.54653916-12.38820117-12.38820117-12.38820117l-39.35461729 0c-6.84166114 0-12.38820117 5.54653916-12.38820117 12.38820117L269.82704287 446.07141533zM269.82704287 346.97929980000004c0 6.84076201 5.54653916 12.38730117 12.38820117 12.38730117l39.35461729 0c6.84166114 0 12.38820117-5.54653916 12.38820117-12.38730117l0-39.3564164c0-6.84076201-5.54653916-12.38730117-12.38820117-12.38730117l-39.35461729 0c-6.84166114 0-12.38820117 5.54653916-12.38820117 12.38730117L269.82704287 346.97929980000004zM269.82704287 247.88628516000006c0 6.84076201 5.54653916 12.38730117 12.38820117 12.38730117l39.35461729 0c6.84166114 0 12.38820117-5.54653916 12.38820117-12.38730117l0-39.35641641c0-6.84076201-5.54653916-12.38730117-12.38820117-12.38730117l-39.35461729 0c-6.84166114 0-12.38820117 5.54653916-12.38820117 12.38730117L269.82704287 247.88628516000006zM269.82704287 148.79327049999995c0 6.84076201 5.54653916 12.38730117 12.38820117 12.38730117l39.35461729 0c6.84166114 0 12.38820117-5.54653916 12.38820117-12.38730117l0-39.3564164c0-6.84076201-5.54653916-12.38730117-12.38820117-12.38730118l-39.35461729 0c-6.84166114 0-12.38820117 5.54653916-12.38820117 12.38730118L269.82704287 148.79327049999995z"  horiz-adv-x="1024" />

    
    <glyph glyph-name="linkedinbox" unicode="&#59691;" d="M774.50000029 121.49999971L662.00000029 121.49999971 662.00000029 320.25000029C662.00000029 351.375 636.875 376.50000029 605.75000029 376.50000029 574.62499971 376.50000029 549.50000029 351.375 549.50000029 320.25000029L549.50000029 121.49999971 437.00000029 121.49999971 437.00000029 458.99999971 549.50000029 458.99999971 549.50000029 413.99999971C568.25 445.49999971 609.12500029 466.50000029 643.24999971 466.50000029 715.625 466.50000029 774.50000029 407.625 774.50000029 335.24999971M305.74999971 522.375C268.25000029 522.375 237.87500029 552.75 237.87500029 590.25000029 237.87500029 627.74999971 268.25000029 658.12499971 305.74999971 658.12499971 343.25 658.12499971 373.625 627.74999971 373.625 590.25000029 373.625 552.75 343.25 522.375 305.74999971 522.375M361.99999971 121.49999971L249.49999971 121.49999971 249.49999971 458.99999971 361.99999971 458.99999971M811.99999971 759.00000029L212.00000029 759.00000029C170.37500029 759.00000029 136.99999971 725.62499971 136.99999971 683.99999971L136.99999971 84.00000029C136.99999971 42.74999971 170.74999971 8.999999709999997 212.00000029 8.999999709999997L811.99999971 8.999999709999997C853.25000029 8.999999709999997 887.00000029 42.74999971 887.00000029 84.00000029L887.00000029 683.99999971C887.00000029 725.62499971 853.25000029 759.00000029 811.99999971 759.00000029Z"  horiz-adv-x="1024" />

    
    <glyph glyph-name="resizebottomright" unicode="&#59960;" d="M938.666667-42.666667 853.333333-42.666667 853.333333 42.666667 938.666667 42.666667 938.666667-42.666667M938.666667 128 853.333333 128 853.333333 213.333333 938.666667 213.333333 938.666667 128M768-42.666667 682.666667-42.666667 682.666667 42.666667 768 42.666667 768-42.666667M768 128 682.666667 128 682.666667 213.333333 768 213.333333 768 128M597.333333-42.666667 512-42.666667 512 42.666667 597.333333 42.666667 597.333333-42.666667M938.666667 298.666667 853.333333 298.666667 853.333333 384 938.666667 384 938.666667 298.666667Z"  horiz-adv-x="1024" />

    
    <glyph glyph-name="gantan" unicode="&#58897;" d="M512 774.06643535c-215.51188271 0-390.06643535-174.55455175-390.06643535-390.06643535s174.55455175-390.06643535 390.06643535-390.06643535 390.06643535 174.55455175 390.06643535 390.06643535S727.51098359 774.06643535 512 774.06643535zM551.00655371 188.96723232l-78.01310742 0 0 234.03932139 78.01310742 1e-8L551.00655371 188.96723232zM551.00655371 501.01966026l-78.01310742 0 0 78.01310742 78.01310742 0L551.00655371 501.01966026z"  horiz-adv-x="1024" />

    
    <glyph glyph-name="info" unicode="&#59005;" d="M512 800c-229.76 0-416-186.24-416-416s186.24-416 416-416 416 186.24 416 416-186.24 416-416 416zM577.248 230.944c-31.392-47.136-63.328-83.456-117.056-83.456-36.672 5.984-51.744 32.256-43.808 59.04l69.12 228.928c1.696 5.6-1.12 11.584-6.24 13.408-5.088 1.792-15.072-4.832-23.712-14.304l-41.792-50.272c-1.12 8.448-0.128 22.4-0.128 28.032 31.392 47.136 82.976 84.32 117.952 84.32 33.248-3.392 48.992-29.984 43.2-59.2l-69.6-230.048c-0.928-5.184 1.824-10.464 6.528-12.128 5.12-1.792 15.872 4.832 24.544 14.304l41.76 50.24c1.12-8.448-0.768-23.232-0.768-28.864zM567.936 529.952c-26.432 0-47.872 19.264-47.872 47.616s21.44 47.584 47.872 47.584 47.872-19.264 47.872-47.584c0-28.384-21.44-47.616-47.872-47.616z"  horiz-adv-x="1024" />

    
    <glyph glyph-name="ai-home" unicode="&#58893;" d="M574.4123232 51.77640998000004L574.4123232 249.29119622999997 450.24614633 249.29119622999997l0-198.04203601c-3.88046466-0.199991-6.97598302-0.50037378-10.07229241-0.50037377-58.62671631 0-117.28347036-0.031619-175.91413866 0-20.14616529 0-33.69340555 12.921971-33.78273006 34.32183736-0.40709727 81.26447267-0.28299202 162.59613687 0.09011476 243.86060954 0 4.28519042 3.25519538 9.76558614 6.53963824 12.690361 53.05857733 46.87860709 106.39619317 93.45762243 159.64369501 140.07299898 35.44431864 31.02948972 70.85859878 62.06135018 106.30212641 93.0584299 2.75403136 2.3927821 5.57209096 4.71679219 9.04071611 7.67792905 21.14849333-18.47509072 42.20291991-36.84662945 63.22651697-55.25215791 69.35510596-60.70172488 138.62009795-121.53546052 208.16412841-182.00478438 7.47714704-6.47640026 10.66752316-13.05398177 10.60428517-23.51914166-0.43713501-77.14844528-0.31382077-154.32376731-0.15493401-231.43584981 0.0292475-14.0223193-3.25519538-26.21546827-14.92504658-33.95742634-4.22353292-2.81885061-9.57270888-5.24799472-14.42072081-5.28040395-62.22418894-0.33200177-124.44837788-0.16283875-186.63778607-0.13121975C577.04224931 50.84838645000002 576.0992065 51.28077922 574.4123232 51.77640998000004L574.4123232 51.77640998000004zM667.85808811 598.6049568999999c0 32.59305802-0.03082875 62.69294371 0 92.76279014 0.0292475 19.20233225 4.34684793 23.78711442 22.39824162 23.81952444 28.03119984 0 56.06160945 0.031619 84.0928093-0.03241001 14.45392106-0.03636201 19.45607601-5.4479857 19.49006728-21.69550535 0.06481925-64.35295103 0.21817277-128.74384456-0.1889245-193.09679558-0.06323799-9.93395814 2.5658971-16.31075764 9.91419586-22.62352813 30.72515497-26.24787752 60.84954515-53.22457784 91.13282133-80.03606789 14.85706558-13.15832477 15.23412435-19.56674326 2.72004087-35.21824114-7.56805281-9.50156614-14.98117084-19.169923-22.61720464-28.63986937-9.38378438-11.72518522-17.14392343-12.45716897-28.37347787-2.4884301-107.52262722 95.28679198-215.04604468 190.63761297-322.60266239 285.95602396-3.7223689 3.28839563-7.5380143 6.5135525-11.88960523 10.3023219-24.1807737-21.39986558-48.1765749-42.56337817-72.10913733-63.79091975C352.54443927 486.47541452 265.26204408 409.10010149 177.97885866 331.75640745c-11.82478521-10.49756991-19.17387499-9.86992913-29.12206216 2.49159185-8.23205558 10.2659599-16.42458664 20.59990081-24.52700371 30.96071771-9.44860362 12.09433923-9.07154485 19.90348803 2.34614384 30.10146619 48.70777665 43.29140994 97.54440233 86.41761039 146.34624573 129.60783908 65.03750631 57.57774925 130.13983186 115.08593625 195.1480899 172.76249603 29.49912092 26.14827754 58.21882879 26.14827754 87.7835592-0.19920076 34.94315463-31.12908971 69.98432799-62.1301222 104.98755887-93.1588209C662.6029789 602.85694708 664.35389121 601.49732177 667.85808811 598.6049568999999L667.85808811 598.6049568999999zM667.85808811 598.6049568999999"  horiz-adv-x="1024" />

    
    <glyph glyph-name="ai-weixin" unicode="&#58927;" d="M800.72486558 540.2308974800001C811.98742098 540.2308974800001 823.06634641 539.3813189 834.20648444 538.16763983 804.21380994 676.64847576 654.92373467 779.5078125 484.45516079 779.5078125 293.90985408 779.5078125 137.82552083 650.7971002300001 137.82552083 487.25378471 137.82552083 392.89020067 189.73121298 315.3967652 276.52634408 255.19826145000002L241.88174299 151.85345045999998 363.0766373 212.05195421999997C406.41299377 203.61688030000005 441.18001302 194.87838778000003 484.45516079 194.87838778000003 495.35045938 194.87838778000003 506.12333747 195.36386203999996 516.77379664 196.15275335 510.04074735 219.15197992000003 506.06212801 243.18283297999994 506.06212801 268.24531643 506.12333747 418.37747186 636.13240688 540.2308974800001 800.72486558 540.2308974800001L800.72486558 540.2308974800001ZM614.40301764 633.38079861C640.60070352 633.38079861 657.80058357 616.32860209 657.80058357 590.47722656 657.80058357 564.74722094 640.60070352 547.51297188 614.40301764 547.51297188 588.51137987 547.51297188 562.43611525 564.74722094 562.43611525 590.47722656 562.43611525 616.38928473 588.45017117 633.38079861 614.40301764 633.38079861L614.40301764 633.38079861ZM371.82960062 547.51297188C345.81554469 547.51297188 319.6178619 564.74722094 319.6178619 590.47722656 319.6178619 616.32860209 345.81554469 633.38079861 371.82960062 633.38079861 397.84365655 633.38079861 415.10474839 616.38928473 415.10474839 590.47722656 415.10474839 564.74722094 397.84365655 547.51297188 371.82960062 547.51297188L371.82960062 547.51297188ZM1117.1782011 272.37182786999995C1117.1782011 409.76034924 978.4773763 521.72228285 822.69908961 521.72228285 657.73937411 521.72228285 527.91393465 409.69966276 527.91393465 272.37182786999995 527.91393465 134.61920138999994 657.80058357 23.021369820000018 822.69908961 23.021369820000018 857.22127407 23.021369820000018 892.04950201 31.57781054999998 926.69410386 40.194934709999984L1021.75252407-11.5078125 995.67725944 74.42069764999997C1065.2725074 126.24481398 1117.1782011 194.87838778000003 1117.1782011 272.37182786999995L1117.1782011 272.37182786999995ZM727.0897865 315.3967652C709.88990336 315.3967652 692.44518466 332.38827906999995 692.44518466 349.74389341999995 692.44518466 366.85677721 709.88990336 384.09102628 727.0897865 384.09102628 753.40989056 384.09102628 770.48735244 366.85677721 770.48735244 349.74389341999995 770.48735244 332.38827906999995 753.40989056 315.3967652 727.0897865 315.3967652L727.0897865 315.3967652ZM917.75750983 315.3967652C900.68004794 315.3967652 883.29653869 332.38827906999995 883.29653869 349.74389341999995 883.29653869 366.85677721 900.61883924 384.09102628 917.75750983 384.09102628 943.83277445 384.09102628 961.15507575 366.85677721 961.15507575 349.74389341999995 961.15507575 332.38827906999995 943.83277445 315.3967652 917.75750983 315.3967652L917.75750983 315.3967652Z"  horiz-adv-x="1280" />

    
    <glyph glyph-name="anquan" unicode="&#58909;" d="M855.91983672 712.78736407C855.91983672 712.78736407 855.91983672 309.67892343000005 855.91983672 309.67892343000005 855.91983672 285.50135859 850.17637578 261.46136172 838.7238453 237.55893358000003 827.23692266 213.58772108000005 812.24201796 190.44191562000003 793.6703461 167.94955859000004 775.098675 145.49159297000006 753.8788211 124.20295546 730.04517656 104.15242890000002 706.17713984 84.06751014999998 681.99957578 66.18367890000002 657.4780914 50.50093436999998 632.92221484 34.783797660000005 609.08857032 21.71484375 585.94276484 11.32846483000003 562.79696015 0.9420859399999699 542.50568983-6.177054689999977 525.06895391-10.063349209999956 525.06895391-10.063349209999956 516.81487735-11.5078125 516.81487735-11.5078125 516.81487735-11.5078125 509.24864141-10.063349209999956 509.24864141-10.063349209999956 491.36481015-6.177054689999977 470.62644375 0.9420859399999699 446.99915079 11.32846483000003 423.37185781 21.71484375 398.85037345 34.783797660000005 373.40030548 50.50093436999998 347.9502375 66.18367890000002 322.98165781 84.06751014999998 298.42578125 104.15242890000002 273.90429687 124.20295546 251.99660312 145.49159297000006 232.73709219 167.94955859000004 213.47758125 190.44191562000003 197.89801328 213.58772108000005 185.99838671 237.55893358000003 174.02997656 261.46136172 168.08016328 285.50135859 168.08016328 309.67892343000005 168.08016328 309.67892343000005 168.08016328 712.78736407 168.08016328 712.78736407 168.08016328 712.78736407 196.28158983 717.15514609 196.28158983 717.15514609 196.28158983 717.15514609 512.68783983 779.5078125 512.68783983 779.5078125 512.68783983 779.5078125 835.28464688 717.15514609 835.28464688 717.15514609 835.28464688 717.15514609 855.91983672 712.78736407 855.91983672 712.78736407 855.91983672 712.78736407 855.91983672 712.78736407 855.91983672 712.78736407ZM512.79101563 721.1446164C512.79101563 721.1446164 508.97350547 721.93563203 508.97350547 721.93563203 508.97350547 721.93563203 237.41440233 673.270975 237.41440233 673.270975 237.41440233 673.270975 237.41440233 418.94225546 237.41440233 418.94225546 237.41440233 418.94225546 512.79101563 418.94225546 512.79101563 418.94225546 512.79101563 418.94225546 512.79101563 721.1446164 512.79101563 721.1446164 512.79101563 721.1446164 512.79101563 721.1446164 512.79101563 721.1446164ZM786.58559767 418.94225546C786.58559767 418.94225546 512.79101563 418.94225546 512.79101563 418.94225546 512.79101563 418.94225546 512.79101563 56.932235160000005 512.79101563 56.932235160000005 530.39971094 61.19684140000004 549.55604609 67.69692578000002 570.26002031 76.46688202999997 590.92960235 85.23683749999998 611.35844063 95.58882500000004 631.51214297 107.55723516 651.7002375 119.52564531999997 671.09731642 132.80095079 689.77216407 147.41754453 708.44701094 162.03413750000004 724.9207711 177.75127342999997 739.3310125 194.50016954 753.70686171 211.21467421 765.15939218 228.61701796 773.72299608 246.70720079 782.32099218 264.76299219 786.58559767 283.12831172000006 786.58559767 301.734375 786.58559767 301.734375 786.58559767 418.94225546 786.58559767 418.94225546 786.58559767 418.94225546 786.58559767 418.94225546 786.58559767 418.94225546Z"  horiz-adv-x="1024" />

    
    <glyph glyph-name="consume" unicode="&#58910;" d="M716.94285752 609l-321.42857168 0 0 192.85714248 321.42857168 0L716.94285752 609zM459.8 673.28571416l192.85714248 0 0 64.28571416-192.85714248 0L459.8 673.28571416zM909.8-33.85714247999999L202.65714248-33.85714247999999 202.65714248 737.57142832 331.22857168 737.57142832 331.22857168 673.28571416 266.94285752 673.28571416 266.94285752 30.428571680000005 845.51428584 30.428571680000005 845.51428584 673.28571416 781.22857168 673.28571416 781.22857168 737.57142832 909.8 737.57142832ZM331.22857168 544.71428584l192.85714248 0 0-192.85714248-192.85714248 0 0 192.85714248ZM588.37142832 544.71428584l192.85714248 0 0-64.28571417-192.85714248 1e-8 0 64.28571416ZM588.37142832 416.14285752l192.85714248 0 0-64.28571416-192.85714248 0 0 64.28571416ZM331.22857168 287.57142832l450 0 0-64.28571416-450 0 0 64.28571416ZM331.22857168 159l450 0 0-64.28571416-450 0 0 64.28571416Z"  horiz-adv-x="1098" />

    
    <glyph glyph-name="xinyongqia" unicode="&#59047;" d="M538.35070801 225.796875l-158.20312501 0 1e-8-52.7508545 158.20312499 0L538.35070801 225.796875zM327.44616699 225.796875L221.99389648 225.796875l0-52.7508545 105.50170899 0L327.49560547 225.796875zM182.44311523 120.34460449000005c-3.55957031 0-6.62475586 1.28540039-9.29443359 3.85620118-2.62023926 2.62023926-3.90563965 5.73486328-3.90563965 9.29443359L169.24304199 384l685.51391601 0 0-250.50476075c0-3.55957031-1.28540039-6.62475586-3.85620117-9.29443358-2.62023926-2.57080078-5.73486328-3.85620117-9.29443359-3.85620117L182.44311523 120.34460449000005zM841.60632325 647.6553955100001c3.55957031 0 6.62475586-1.28540039 9.29443358-3.90563965 2.57080078-2.57080078 3.85620117-5.68542481 3.85620117-9.29443359l0-92.30163575L169.24304199 542.15368653 169.24304199 634.45532227c0 3.60900879 1.28540039 6.67419434 3.90563965 9.29443359 2.62023926 2.62023926 5.73486328 3.90563965 9.29443359 3.90563965L841.60632325 647.6553955100001zM182.44311523 700.40625c-18.1439209 0-33.61816406-6.47644043-46.57104492-19.37988281C122.96862793 668.07348633 116.4921875 652.59924317 116.4921875 634.45532227l0-500.96008302c0-18.1439209 6.47644043-33.61816406 19.37988281-46.57104492 12.90344239-12.85400391 28.42712403-19.33044434 46.57104492-19.33044433l659.16320802 0c18.1439209 0 33.61816406 6.47644043 46.57104492 19.33044433C901.03137207 99.87707519000003 907.5078125 115.35131836000005 907.5078125 133.49523925000005L907.5078125 634.45532227c0 18.1439209-6.47644043 33.61816406-19.33044434 46.57104492C875.27392578 693.92980957 859.75024414 700.40625 841.60632325 700.40625L182.44311523 700.40625z"  horiz-adv-x="1024" />

    
    <glyph glyph-name="mimakejian" unicode="&#58997;" d="M510.92075586 610.6863196300001c33.54651738 0 67.54272012-7.10502627 101.0892375-21.13520538 29.94903545-12.50124873 60.16788281-30.75846943 89.93704395-54.2320374 44.06915127-34.80563584 86.42949961-80.13390644 129.41940673-138.50304784 5.75597109-7.82452266 5.75597109-22.03457607 0-29.85909874-26.89117646-36.51443965-70.96032773-88.85779981-128.1602874-130.94833623-62.95593076-46.31757802-127.71060293-69.79114599-192.3753375-69.79114599-33.99620273 0-67.90246787 6.5654042-100.81942646 19.42640156-29.22953906 11.51194131-58.45907901 28.24023164-86.87918497 49.82512236-42.72009609 32.46727324-83.46157646 75.45718037-124.65274307 131.39802158-5.75597109 7.82452266-5.75597109 22.03457607 0 29.85909874 33.00689531 44.87858526 73.83831328 96.41251143 126.00179913 139.04266992 28.59998028 23.38363125 57.82951933 41.55091435 86.78924736 53.87228964C444.00759453 603.58129336 477.55411192 610.6863196300001 510.92075586 610.6863196300001M510.92075586 659.25232354C339.77056045 659.25232354 220.33416641 508.15808935 159.44678721 425.50594599c-18.34715742-24.91256162-18.34715742-62.596183 0-87.50874375C220.33416641 255.43499559999998 339.77056045 117.56150653999998 510.92075586 117.56150653999998c171.15019453 0 298.68092315 137.78355146 359.56830234 220.43569482 18.34715742 24.91256162 18.34715742 62.596183 0 87.50874375C809.60167901 508.15808935 682.07095039 659.25232354 510.92075586 659.25232354L510.92075586 659.25232354zM514.96792227 290.24063145c-54.14210068 0-98.12131523 44.06915127-98.12131524 98.12131523 0 54.14210068 44.06915127 98.12131523 98.12131524 98.12131524C569.11002295 486.57319863 613.17917422 442.50404737 613.17917422 388.36194668 613.17917422 334.30978271000004 569.11002295 290.24063145 514.96792227 290.24063145zM514.96792227 438.00719473c-27.34086182 0-49.55531133-22.21444951-49.55531133-49.55531133s22.21444951-49.55531133 49.55531133-49.55531133c27.34086182 0 49.55531133 22.21444951 49.55531132 49.55531133S542.30878408 438.00719473 514.96792227 438.00719473z"  horiz-adv-x="1024" />

    
    <glyph glyph-name="ego-box" unicode="&#58891;" d="M512 757.75900268l-322.56051636-187.39242554v-373.75900268l322.56051636-186.36822509 322.56051636 187.39242553v372.7364502l-322.56051636 187.39242553zM788.48056031 562.17544555l-276.48056031-160.76815795-276.48056031 160.76815795 276.48056031 159.7447815 276.48056031-159.7447815zM220.15972901 535.5511779799999l275.45635985-159.7447815-1.02420043-319.48791504-274.43133545 158.71975708v320.51129151zM525.31213378 53.248352049999994l1.02420044 320.51129151 277.50393677 161.79153442v-320.5112915l-278.5281372-161.79153443z"  horiz-adv-x="1024" />

    
    <glyph glyph-name="duigou" unicode="&#58973;" d="M511.98229361 755.15192148c-203.77259253 0-368.96387338-165.19043875-368.96387338-368.96387338s165.19043875-368.96387338 368.96387338-368.96387339 368.96387338 165.19043875 368.96387339 368.96387339S715.75572824 755.15192148 511.98229361 755.15192148zM481.549458 200.76976107999997c-6.05233411-5.90224795-13.96387628-8.84072434-21.87457552-8.84072434-7.93093524 0-15.84163449 2.93847638-21.87204594 8.84072434L255.94529236 378.23856272c-12.07937302 11.80112421-12.07937302 30.90670176 0 42.70782513 12.08190262 11.80112421 31.66387592 11.80112421 43.74577771 0l159.98296866-156.11615305L771.60195871 569.17039178c12.08190262 11.80112421 31.66387592 11.80112421 43.74577771 0 12.08274555-11.77920154 12.08274555-30.88477908 0-42.68590245L481.549458 200.76976107999997z"  horiz-adv-x="1024" />

    
    <glyph glyph-name="gantanhao" unicode="&#59013;" d="M512 13.211425780000013C307.22042275 13.211425780000013 141.21142578 179.22042275 141.21142578 384 141.21142578 588.77957725 307.22042275 754.78857422 512 754.78857422 716.77957725 754.78857422 882.78857422 588.77957725 882.78857422 384 882.78857422 179.22042275 716.77957725 13.211425780000013 512 13.211425780000013ZM546.76142883 580.98143005C546.76142883 600.1813259099999 531.19989585 615.7428588800001 512 615.7428588800001 492.80010415 615.7428588800001 477.23857117 600.1813259099999 477.23857117 580.98143005L477.23857117 326.06428528000004C477.23857117 306.86438941999995 492.80010415 291.30285644 512 291.30285644 531.19989585 291.30285644 546.76142883 306.86438941999995 546.76142883 326.06428528000004L546.76142883 580.98143005ZM512 221.77999878000003C492.80010415 221.77999878000003 477.23857117 206.2184658 477.23857117 187.01856995000003 477.23857117 167.81867408999994 492.80010415 152.25714112000003 512 152.25714112000003 531.19989585 152.25714112000003 546.76142883 167.81867408999994 546.76142883 187.01856995000003 546.76142883 206.2184658 531.19989585 221.77999878000003 512 221.77999878000003Z"  horiz-adv-x="1024" />

    
    <glyph glyph-name="eth1" unicode="&#58914;" d="M514.82796201 242.60189971L268.79526752 389.65592402 514.82796201 799.71041483ZM514.82796201 7.881053260000044L274.45119152 352.89241792999997 514.82796201 208.66635566000002ZM523.31184801 242.60189971L769.34454252 389.65592402 523.31184801 799.71041483ZM526.13981003 7.881053260000044L769.34454252 352.89241792999997 526.13981003 208.66635566000002Z"  horiz-adv-x="1024" />

    
    <glyph glyph-name="iconfontzhizuobiaozhun16" unicode="&#58898;" d="M511.990279-62.795952c-15.479553 0-29.91124 7.619538-38.662555 20.397562l-258.299881 362.048803-0.298805 0.473791c-33.29736 52.876278-50.897204 113.341395-50.897204 174.85847 0 185.169303 156.184155 335.814302 348.158445 335.814302 191.985546 0 348.176864-150.653185 348.176864-335.832721 0-61.440327-17.377786-121.559567-50.257637-173.860746l-0.630357-0.942465-258.597663-362.545106C541.953707-55.172321 527.513834-62.795952 511.990279-62.795952zM247.331573 341.305619l257.907954-361.497241 0.135076-0.201591c1.494027-2.208295 3.967358-3.527336 6.615675-3.527336 2.666736 0 5.13802 1.305739 6.611581 3.493567l0.297782 0.430812 258.395048 362.262674c28.78458 45.984311 43.99705 98.772584 43.99705 152.697751 0 163.743318-138.752134 296.956296-309.301462 296.956296-170.539094 0-309.283042-133.206838-309.283042-296.938899C202.707236 440.988945 218.137671 387.859911 247.331573 341.305619zM511.990279 298.801573c-101.345176 0-183.796026 82.46006-183.796026 183.817516 0 101.355409 82.45085 183.814446 183.796026 183.814446 101.356432 0 183.815469-82.459037 183.815469-183.814446C695.805748 381.261633 613.346711 298.801573 511.990279 298.801573zM511.990279 627.558132c-79.908958 0-144.920624-65.018829-144.920624-144.939043 0-79.921237 65.011666-144.943137 144.920624-144.943137 79.920214 0 144.939043 65.021899 144.939043 144.943137C656.929322 562.539302 591.910493 627.558132 511.990279 627.558132z"  horiz-adv-x="1024" />

    
    <glyph glyph-name="infoup" unicode="&#58975;" d="M512 867.945205c-273.534247 0-490.958904-217.424658-490.958904-490.958904 0-273.534247 217.424658-490.958904 490.958904-490.958904s490.958904 217.424658 490.958904 490.958904C1002.958904 643.506849 785.534247 867.945205 512 867.945205L512 867.945205zM512-43.835616c-231.452055 0-420.821918 189.369863-420.821918 420.821918s189.369863 413.808219 420.821918 413.808219c231.452055 0 420.821918-189.369863 420.821918-413.808219C925.808219 145.534247 743.452055-43.835616 512-43.835616L512-43.835616zM512 475.178082C490.958904 475.178082 469.917808 454.136986 469.917808 433.09589l0-287.561644c0-21.041096 21.041096-42.082192 42.082192-42.082192 21.041096 0 42.082192 21.041096 42.082192 42.082192L554.082192 433.09589C554.082192 454.136986 540.054795 475.178082 512 475.178082L512 475.178082zM512 650.520548c-28.054795 0-56.109589-21.041096-56.109589-56.109589 0-28.054795 21.041096-56.109589 56.109589-56.109589s56.109589 21.041096 56.109589 56.109589C568.109589 622.465753 540.054795 650.520548 512 650.520548L512 650.520548zM652.273973 650.520548"  horiz-adv-x="1024" />

    
    <glyph glyph-name="weibo" unicode="&#58905;" d="M696.5612 422.6424c-29.4156 5.598-15.408 21.7044-15.408 21.7044s28.7154 47.6316-5.6088 81.9558c-42.7212 42.7212-146.3814-5.6106-146.3814-5.6106-39.2238-11.9088-28.7136 5.6106-23.1174 36.423 0 35.7228-12.6054 96.651-118.3662 60.2262-105.0606-35.712-195.4134-162.4878-195.4134-162.4878-63.0378-84.042-54.63-148.4802-54.63-148.4802 15.4062-143.5824 168.0984-182.8062 286.4646-191.9124 124.677-9.8082 292.7628 42.7194 343.8918 151.2918C819.1268 374.3106 725.975 417.0318 696.5612 422.6424L696.5612 422.6424zM433.2122 154.38480000000004c-123.9768-5.5962-224.127 56.727-224.127 139.383 0 82.6434 100.1502 148.482 224.127 154.0908 123.966 5.5962 224.1252-44.8326 224.1252-127.476C657.3374 237.72479999999996 557.1782 159.99360000000001 433.2122 154.38480000000004L433.2122 154.38480000000004zM408.6962 393.9162c-124.677-14.7078-110.6694-131.6736-110.6694-131.6736s-0.7002-36.4122 33.6258-55.3284c72.846-39.2202 147.7818-15.4062 185.6034 32.9256C555.0776 288.8574 533.3606 407.9238 408.6962 393.9162L408.6962 393.9162zM377.171 230.02980000000002c-23.103-2.799-42.021 10.5084-42.021 30.1122 0 19.6164 16.8174 39.9222 39.9222 42.021 26.6148 2.8116 44.1324-12.6054 44.1324-32.2128C419.2046 250.3338 400.2884 232.8288 377.171 230.02980000000002L377.171 230.02980000000002zM450.719 292.3692c-8.4096-5.6106-17.5068-4.9122-21.717 2.0988-4.8978 6.9984-2.799 18.2052 4.9104 23.814 9.0972 6.9984 18.9054 4.8996 23.1156-2.1096C461.2256 309.1758 457.7282 298.66560000000004 450.719 292.3692L450.719 292.3692zM757.5002 473.0604c9.7956 0 18.2052 7.7094 19.6056 17.5176 0 0.7002 0.7002 1.3986 0.7002 2.0988 14.7078 136.5732-112.0572 112.7682-112.0572 112.7682-11.2086 0-20.3166-9.108-20.3166-20.3184 0-11.2068 9.1098-20.3166 20.3166-20.3166 91.0404 20.3166 70.7346-71.4348 70.7346-71.4348C736.4816 482.1684 745.5914 473.0604 757.5002 473.0604L757.5002 473.0604zM742.0814 711.2292c-43.4214 10.4958-88.9416 1.7316-101.5488-1.0674-0.7002 0-2.1132-0.5274-2.8116-0.5274-0.7002 0-0.7002-0.6138-0.7002-0.6138-12.609-3.5118-21.7062-15.3702-21.7062-28.6776 0-16.1064 13.3074-29.4012 29.4138-29.4012 0 0 16.1064 2.1114 27.315 6.3216 10.5084 4.1976 101.5614 2.8116 147.0816-72.8334 24.516-55.3284 10.5084-92.4516 9.108-98.7606 0 0-6.309-14.0094-6.309-28.7172 0-16.1064 13.3074-27.2898 30.1248-27.2898 13.3092 0 25.2162-0.6642 28.0134 24.5358l0.7002 0C929.096 627 821.2256 693.0114 742.0814 711.2292L742.0814 711.2292z"  horiz-adv-x="1024" />

    
    <glyph glyph-name="yidong" unicode="&#59076;" d="M480 473.6l64 0 0 128 147.2 0L537.6 761.6C524.8 768 499.2 768 486.4 761.6L332.8 601.6l147.2 0L480 473.6zM422.4 416l-128 0L294.4 563.2 134.4 409.6C128 396.8 128 371.2 134.4 358.4l160-160L294.4 352l128 0L422.4 416zM889.6 409.6l-160 160 0-147.2-128 0 0-64 128 0 0-147.2 160 160C896 371.2 896 396.8 889.6 409.6zM544 294.4l-64 0 0-128L332.8 166.4l160-160c12.8-12.8 32-12.8 44.8 0l160 160L544 166.4 544 294.4z"  horiz-adv-x="1024" />

    
    <glyph glyph-name="touzijilu" unicode="&#58894;" d="M320.333726-2.880351l433.796894 0 0-59.82862-433.796894 0 0 59.82862ZM764.881474-62.708971c-37.70474 1.986237-71.903633 18.229177-95.468328 44.598754-21.11183 23.604604-31.745005 52.973492-30.030967 82.673931l-0.038886 71.513754c0 16.515139 13.399171 29.91431 29.91431 29.91431 16.515139 0 29.91431-13.399171 29.91431-29.91431l0-73.247234c-0.856507-15.46318 4.440126-29.427216 14.839986-41.073464 13.048177-14.58723 32.17377-23.585161 52.466955-24.674982 34.627658 0.038886 64.113203 29.52443 64.113203 65.74947l0 77.376275c0 16.515139 13.399171 29.91431 29.91431 29.91431 16.515139 0 29.91431-13.399171 29.91431-29.91431l0-77.376275C890.420679-6.386198 834.096882-62.708971 764.881474-62.708971zM259.297604-62.708971c-0.545422 0-1.090844 0.019443-1.636267 0.038886-36.107359 1.947352-70.306252 18.190291-93.871971 44.559868-21.11183 23.604604-31.745005 52.973492-30.030967 82.673931l-0.038886 72.916706c0 16.515139 13.399171 29.91431 29.91431 29.91431s29.91431-13.399171 29.91431-29.91431l0-74.649164c-0.856507-15.46318 4.440126-29.427216 14.839986-41.073464 13.048177-14.58723 32.17377-23.585161 52.466955-24.674982 16.515139-0.895393 29.17446-14.996552 28.278043-31.492248C288.276612-50.361759 275.072893-62.708971 259.297604-62.708971zM255.207449-2.880351l512.751107 0 0-59.82862-512.751107 0 0 59.82862ZM890.420679 78.643384 830.591035 78.643384 830.591035 770.880351 397.533992 770.880351c-58.737776 0-108.361987-48.454572-108.361987-105.809861l0-537.815969-59.82862 0L229.343385 665.07049c0 91.340311 75.448366 165.639504 168.190607 165.639504l492.885664 0L890.419655 78.643384zM133.7584 167.393707l565.373605 0 0-59.82862-565.373605 0 0 59.82862ZM692.626847 587.071022 362.40082 587.071022c-16.515139 0-29.91431 13.399171-29.91431 29.91431 0 16.515139 13.399171 29.91431 29.91431 29.91431l330.226027 0c16.515139 0 29.91431-13.399171 29.91431-29.91431C722.541157 600.470193 709.141986 587.071022 692.626847 587.071022zM692.626847 454.948889 362.40082 454.948889c-16.515139 0-29.91431 13.399171-29.91431 29.91431 0 16.515139 13.399171 29.91431 29.91431 29.91431l330.226027 0c16.515139 0 29.91431-13.399171 29.91431-29.91431C722.541157 468.34806 709.141986 454.948889 692.626847 454.948889zM552.20877 322.827779 362.40082 322.827779c-16.515139 0-29.91431 13.399171-29.91431 29.91431 0 16.515139 13.399171 29.91431 29.91431 29.91431l189.80795 0c16.515139 0 29.91431-13.399171 29.91431-29.91431C582.123081 336.22695 568.723909 322.827779 552.20877 322.827779z"  horiz-adv-x="1024" />

    
    <glyph glyph-name="yonghu" unicode="&#59286;" d="M860.49592315 24.117820019999954l0 3.65421533c0 0.5810045 0.00809472 0.93716279 0.07015253 1.49928047 0.08724112 1.27803076 1.37786308 24.00557607-13.854179 49.25590576-9.16746592 15.19876494-22.52967979 28.47733506-39.71339473 39.46966084-22.11596104 14.14468125-50.63916533 24.54520957-84.77815078 30.9128792-3.93212637 0.54412998-33.05702109 4.71549375-63.61823935 12.76052255-59.95772842 15.78516592-74.53501612 33.3457251-78.96270498 46.09185734-3.39249287 6.57812724-5.29200175 19.65343536-2.52997999 50.9692412 6.08526211 68.94621651 41.8746252 109.54461006 68.0081546 139.18935147 7.41186036 8.40658359 13.81100888 15.6682459 18.38170019 22.2670582 17.89513154 25.85292012 20.70661992 56.17849834 20.98363096 59.82731719-0.02788066 1.90850185-0.22124971 2.73144287-0.3066917 3.00755478-0.21135586 0.67723945-1.60810664 2.15853222-2.95898819 3.59125753-1.05858018 1.12513447-2.26016279 2.40046787-3.50401728 3.88715713-6.73641914 8.05312354-9.13688701 17.8609544-7.33811045 29.98291201 2.00653594 13.52410401 3.20362119 24.74757158 3.76933711 35.31988213 1.654875 30.92996777 0.77437354 54.01636875-2.85016201 74.85429902-0.0485666 0.27701191-0.08993848 0.55492295-0.12231651 0.8337331-0.45059326 3.76034326-1.29781758 7.92541055-2.66848505 13.10768702-4.22442773 16.00012002-10.78276729 29.46216533-19.49424434 40.02098554-1.45161299 1.4821919-13.03663535 12.81718388-38.8787625 25.14600088-46.50377783 22.18611357-102.34950205 30.37684394-141.00971309 33.34122773-18.58676133 1.42463145-37.65739307 0.62057812-55.59749385-0.32557851l-0.9992206-0.05036572c-1.49658222-0.07644815-4.01307099-0.20416114-6.40364589-0.44609678 2.07398935-4.94843467 4.62015791-12.39716953 1.94537724-21.29841738-1.00371709-3.33852979-2.54436943-6.60330967-4.84950234-10.27731182-5.7048205-9.09551513-13.4926251-16.29961612-20.38283966-22.15463467-1.35357979-1.22136943-28.99898086-26.56793408-29.95413134-55.70092354-0.0242833-0.73749815-0.09893232-1.4713998-0.22664619-2.19810497-5.05905997-29.06733428-4.71819199-76.92199277 0.76178232-106.67466123 0.11871914-0.64845878 0.24463388-1.29242109 0.36964864-1.93458429 1.67735918-8.64761924 4.48704844-23.11877901-9.21873164-35.75878417l-0.36874952-0.34086797c-1.76819766-1.63149082-4.18935146-3.86467207-4.589579-4.63454825 0.00359737 0-0.11242354-0.36065479-0.13940508-1.34188769 0.27791104-3.63892588 3.09659414-33.94381816 20.98363095-59.78324707 4.56799395-6.59881318 10.96894072-13.85867637 18.38080109-22.26705821 26.1326294-29.64384229 61.92289248-70.24313496 68.00725546-139.18755234 2.76202178-31.31580498 0.86251377-44.39021484-2.52997998-50.97103945-4.42768886-12.74613223-19.00317744-30.30579229-78.96270498-46.09095821-30.81304687-8.1133831-60.16548779-12.28384688-63.70907784-12.77311464-33.75404737-5.89639043-62.0218248-16.00012002-84.02176493-30.03417685-17.10456855-10.91048115-30.47937363-24.23222227-39.75656573-39.59737383-15.49106631-25.65775283-14.51792812-49.02746133-14.45137294-50.27761143 0.04227099-0.46048711 0.04586924-0.73390078 0.04586923-1.21417471l0-3.6524162M147.60918565-7.564036230000056c-8.74925068 0-15.84182724 7.09257744-15.84182725 15.84182725l0 19.03825371c-0.26981631 5.30908945-0.77167529 34.40430528 17.79709834 66.35148134 11.62279688 19.99610244 28.32713789 37.16452793 49.65253594 51.03039903 25.83852979 16.8014751 58.56457588 28.73276192 97.27065615 35.46018721 0.19786553 0.03417714 0.39573105 0.06385693 0.59359658 0.09263672 0.29499961 0.03867364 30.08004521 4.11560156 60.3372709 12.09227695 52.44603662 13.82629834 57.03291739 26.04988565 57.06439629 26.17040391 0.30848994 1.21237558 0.75728496 2.37618457 1.33289385 3.46894101 0.42990732 2.28714433 1.49478398 10.89609082-0.54053262 33.96180586-5.16968438 58.58166445-35.68953076 93.20272207-60.21225527 121.02080625-7.73384063 8.77353398-15.03867393 17.05959932-20.66434805 25.18557363-24.26729854 35.05636143-26.51756836 74.91725596-26.60301035 76.59731426-0.01259121 0.2635207-0.01888682 0.52794141-0.01888682 0.79146211 0 15.91197979 7.9344044 23.23120254 14.93434424 29.69061064l0.36784951 0.33996885c0.22934443 0.21315498 0.37324599 0.37054776 0.45958711 0.4721792 0.07824638 1.13592744-0.48117305 4.01846748-0.85891553 5.96654297-0.14480156 0.74019638-0.28870401 1.4821919-0.42541084 2.23048301-6.08346299 33.03093867-6.49987998 84.04874648-0.99652236 116.79368027 2.04251133 43.05642187 39.16836562 76.01540977 40.76208193 77.40946142 0.06025869 0.05216484 0.12141738 0.10432881 0.18257608 0.15739278 5.32887627 4.52302471 10.73689893 9.46336465 14.17346191 14.94333897 0.41281963 0.65745263 0.70062363 1.16740635 0.90298565 1.55594179-0.25812422 0.66734648-0.62777285 1.51996641-0.92726982 2.21069707-2.06409638 4.76136211-5.18407471 11.95557012-3.40958145 21.20398155 1.07117138 5.58250401 5.15079756 15.5585206 20.43680273 19.63544765 6.15271641 1.64138379 12.72904453 1.97775528 17.5299794 2.22238916l0.95065312 0.0485666c18.97169942 0.99832148 39.2097375 1.8446458 59.68341563 0.27521279 148.05372305-11.35118145 199.05444317-66.67346162 201.15271581-69.02356377 0.11871914-0.13131036 0.23384092-0.26621895 0.34626446-0.40112753 11.85214042-14.19954434 20.63017178-31.89051474 26.09575488-52.58274346 1.70703896-6.45491074 2.80339365-11.87642373 3.4428586-17.00653535 5.17058438-30.05036543 4.30717148-60.92726924 3.20452119-81.57273047-0.62057812-11.5868206-1.91299922-23.7501501-4.06703408-38.27887031-0.58640097-3.9456167 0.05756045-4.71549375 0.30039609-5.00509687 0.64306231-0.76807793 1.42912793-1.60360928 2.26016279-2.48680899 3.27467285-3.47253838 7.75542656-8.23030313 10.13880586-15.86251319 1.19438789-3.81520547 1.7529082-7.93170615 1.7529082-12.93680302 0-0.2635207-0.0062956-0.52794141-0.01978682-0.79146211-0.08364287-1.68005742-2.3339127-41.54095195-26.60121122-76.59641426-5.62567412-8.12597432-12.93050742-16.41203965-20.66434805-25.18467452-24.52362364-27.8180833-55.04257089-62.44004092-60.21225527-121.02440361-2.03531572-23.06481592-0.97043994-31.67196328-0.54053262-33.96090673 0.57470888-1.09365645 1.02440303-2.25746455 1.33109472-3.4680419 0.03237802-0.12051826 4.63724648-12.3836792 57.32162139-26.23695908 30.25362744-7.95688945 59.78594531-11.98614903 60.08094493-12.02572266 0.2572251-0.03507627 0.51355107-0.07644815 0.76987617-0.12411563 39.05864033-7.24457373 71.98614932-19.48255224 97.86964834-36.36946845 21.39734971-13.96120606 38.07201094-31.09905263 49.56079833-50.9377623 18.21891094-31.45970742 17.47691543-59.91815567 17.11266328-65.62027794l0-18.92313193c0-8.75014981-7.09437568-15.84182724-15.84272724-15.84182724M604.08927969 226.91281962999994c0.38493808-0.3129873 0.75458672-0.64216318 1.10624765-0.98842764C604.8618541 226.25356786999998 604.49310459 226.58454286999995 604.08927969 226.91281962999994M419.85855635 226.91281962999994c-0.40022753-0.3237794-0.76448057-0.65205703-1.09545469-0.97673555C419.11206347 226.27605204999998 419.47721563 226.60253057 419.85855635 226.91281962999994"  horiz-adv-x="1024" />

    
    <glyph glyph-name="jiantouyou" unicode="&#58922;" d="M934.707 384.047c0-116.772-47.293-222.408-123.796-298.921-76.518-76.58-182.185-123.863-298.926-123.863-116.736 0-222.403 47.37-298.891 123.863-76.493 76.513-123.802 182.149-123.802 298.921 0 116.68 47.314 222.372 123.802 298.89 76.488 76.431 182.154 123.802 298.89 123.802 116.741 0 222.408-47.37 298.926-123.802 76.503-76.518 123.796-182.212 123.796-298.89v0zM556.128 178.145c-7.905-7.844-7.905-20.69 0-28.627 7.962-7.905 20.782-7.905 28.682 0l220.165 220.17c3.661 3.63 5.96 8.714 5.96 14.356 0 5.549-2.294 10.665-5.96 14.269v0l-0.348 0.379-219.817 219.786c-7.905 7.905-20.721 7.905-28.682 0-7.905-7.936-7.905-20.721 0-28.627l185.585-185.615h-508.396c-11.186 0-20.254-9.068-20.255-20.199 0-11.249 9.068-20.311 20.254-20.311h508.396l-185.585-185.585zM511.985 766.198c-105.523 0-201.073-42.808-270.239-111.944-69.14-69.166-111.928-164.721-111.928-270.212 0-105.58 42.788-201.134 111.928-270.3 69.166-69.13 164.716-111.908 270.239-111.908 105.548 0 201.078 42.778 270.239 111.918 69.166 69.166 111.913 164.716 111.912 270.3 0 105.492-42.747 201.042-111.913 270.213-69.161 69.125-164.684 111.933-270.239 111.933z"  horiz-adv-x="1024" />

    
    <glyph glyph-name="xiangzuo" unicode="&#59010;" d="M328.04415898 426.92059658C304.34466026 403.22109786 304.36152734 364.76201924 328.04415898 341.07940341999995L663.96479786 5.158747859999949C676.08452393-6.960962399999971 695.73447266-6.960962399999971 707.85419785 5.158747859999949 719.97390898 17.27847393000002 719.97390898 36.928422660000024 707.85419785 49.04814785999997L371.93354317 384.9687876C372.48173633 384.42059443 707.85419785 718.95185214 707.85419785 718.95185214 719.97390898 731.07157734 719.97390898 750.72152607 707.85419785 762.84125214 695.73447266 774.9609624 676.08452393 774.9609624 663.96479786 762.84125214L328.04415898 426.92059658Z"  horiz-adv-x="1024" />

    
    <glyph glyph-name="xiangyou" unicode="&#59011;" d="M655.2863 383.03121239999996C654.73773418 383.57977733999996 319.36564443 49.04814785999997 319.36564443 49.04814785999997 307.24593418 36.928422660000024 307.24593418 17.27847393000002 319.36564443 5.158747859999949 331.4853705-6.960962399999971 351.13531924-6.960962399999971 363.25504443 5.158747859999949L699.17568417 341.07940341999995C722.85831582 364.76201924 722.87518291 403.22109786 699.17568417 426.92059658L363.25504443 762.84125214C351.13531924 774.9609624 331.4853705 774.9609624 319.36564443 762.84125214 307.24593418 750.72152607 307.24593418 731.07157734 319.36564443 718.95185214L655.2863 383.03121239999996Z"  horiz-adv-x="1024" />

    
    <glyph glyph-name="pingguo" unicode="&#58896;" d="M747.07995606 265.34765625q30.40466309-43.01147461 69.70825194-55.61828614-17.05627442-52.65197754-54.13513183-109.75341796-57.10144043-86.02294922-112.71972656-86.02294922-20.76416016 0-61.55090333 14.08996582-37.82043458 14.08996583-66.0003662 14.08996582t-62.29248047-14.83154296q-35.59570313-14.08996583-58.58459473-14.08996583-66.74194336 0-131.25915527 113.46130372-64.51721192 111.97814942-64.51721192 220.24841308 0 100.11291504 48.94409181 163.88854981 50.42724609 63.77563477 124.58496092 63.77563475 16.31469727 0 36.33728028-4.07867431t41.52832032-15.20233155q22.98889161-12.60681153 37.82043457-17.42706298t22.9888916-4.82025147q9.64050293 0 29.66308593 4.44946289t40.04516602 16.31469727q21.50573731 11.86523438 37.07885742 17.79785156t31.88781739 5.93261719q51.91040039 0 93.4387207-28.17993164 22.24731445-14.83154297 45.23620605-43.75305176-34.11254883-29.66308594-49.68566894-51.91040039-28.92150879-41.52832031-28.92150879-90.47241211 0-54.13513184 30.40466309-97.88818359z m-149.05700684 346.31652832q-25.9552002-24.4720459-47.4609375-31.88781738-7.41577148-2.22473145-18.91021729-4.07867432t-26.32598877-3.33709717q0.74157715 65.25878906 34.11254883 112.71972657T649.19177247 750.33911133q1.4831543-7.41577148 2.22473144-10.38208008v-8.15734864q0-26.69677734-12.60681153-60.06774902-13.34838867-32.62939453-40.78674316-60.06774902z"  horiz-adv-x="1024" />

    
    <glyph glyph-name="android" unicode="&#58902;" d="M406.02901748 591.421875q8.03571416 0 13.81138418 5.77567002T425.61607168 611.00892832t-5.77567002 13.81138418T406.02901748 630.59598252t-13.56026748-5.77567002-5.52455332-13.81138417 5.52455332-13.81138331 13.56026748-5.77567002z m211.94196504 0q8.03571416 0 13.56026748 5.77567002t5.52455332 13.8113833-5.52455332 13.81138418-13.56026748 5.77567002-13.81138418-5.77567002T598.38392832 611.00892832t5.77567002-13.8113833T617.97098252 591.421875zM210.15848252 499.01116084q21.09375 0 36.16071416-15.06696416t15.06696416-36.16071416v-215.95982168q0-21.59598252-14.81584834-36.66294668t-36.41182998-15.06696416-36.66294668 15.06696416-15.06696416 36.66294668V447.78348252q0 21.09375 15.06696416 36.16071416t36.66294668 15.06696416z m532.36607081-9.54241084v-334.48660752q0-23.10267832-16.07142833-39.17410664t-38.671875-16.07142832h-37.66741084v-114.00669668q0-21.59598252-15.06696416-36.66294668t-36.66294667-15.06696416-36.66294581 15.06696416-15.06696504 36.66294668v114.00669668H477.34598252v-114.00669668q0-21.59598252-15.06696504-36.66294668t-36.6629458-15.06696416q-21.09375 0-36.16071416 15.06696416t-15.06696504 36.66294668l-0.50223164 114.00669668h-37.16517832q-23.10267832 0-39.17410752 16.07142832t-16.07142832 39.17410664V489.46875h461.04910664zM626.00669668 692.87276748q53.73883916-27.62276748 85.8816958-77.09263331t32.14285752-108.23102665H279.46651748q0 58.76116084 32.14285752 108.23102665T397.99330332 692.87276748l-35.65848164 65.79241084q-3.515625 6.52901748 2.51116084 10.04464335 6.52901748 3.01339248 10.04464248-3.01339335l36.16071416-66.29464248q47.71205332 21.09375 100.94866084 21.09375t100.94866084-21.09375l36.16071416 66.29464248q3.515625 6.02678584 10.04464248 3.01339335 6.02678584-3.515625 2.51116084-10.04464335z m239.56473164-245.08928496v-215.95982168q0-21.59598252-15.06696416-36.66294668t-36.66294668-15.06696416q-21.09375 0-36.16071416 15.06696416t-15.06696416 36.66294668V447.78348252q0 21.59598252 15.06696416 36.41182998t36.16071416 14.81584834q21.59598252 0 36.66294668-14.81584834t15.06696416-36.41182998z"  horiz-adv-x="1024" />

    
    <glyph glyph-name="zuanshi" unicode="&#58915;" d="M512.65299422 11.39623501999995a33.48686782 33.48686782 0 0 0-25.15421886 11.37995401L125.39969395 434.86558238a33.49803011 33.49803011 0 0 0-4.52072692 37.62249604L259.19089255 737.01758868a33.48686782 33.48686782 0 0 0 29.67494576 17.97128561h447.57989216a33.49244897 33.49244897 0 0 0 29.67494576-17.9712856l138.30634439-264.52951027a33.48128668 33.48128668 0 0 0-4.52630805-37.61691491L537.80163116 22.78735131999997a33.43663756 33.43663756 0 0 0-25.14863694-11.3911163zM190.87768317 461.81134811l321.77531104-366.19564086 321.78089219 366.19564086-118.26445411 226.19821015H309.14213728l-118.26445411-226.19821015zM512.65299422 212.02164075999997a33.49244897 33.49244897 0 0 0-24.85841841 11.04508483L275.21435857 458.52405403a33.49244897 33.49244897 0 0 0 49.71683681 44.88356526L512.65299422 295.48207709999997l187.72179881 207.92554219a33.48686782 33.48686782 0 0 0 49.71125491-44.88356526L537.51141185 223.07230673000004a33.47570554 33.47570554 0 0 0-24.85841763-11.05066596z"  horiz-adv-x="1024" />

    
    <glyph glyph-name="yonghuguanli" unicode="&#58918;" d="M307.95519969 581.66080031c0-109.20319969 88.4544-197.66080031 197.66080031-197.66080031 109.20319969 0 197.66080031 88.45759969 197.66080031 197.66080031s-88.45759969 197.66080031-197.66080031 197.66079938c-109.20640031 0-197.66080031-88.45759969-197.66080031-197.66079938zM151.4816 88.05760031v0z m0 1.24479938v0z m0 0.31360031s0-0.15679969 0 0z m708.2688-2.496v0.31360031-0.31360031z m0 0.46720031v0.624-0.624z m-708.2688-0.46720031v0z m533.5392 254.91520031l-16.224 0.15679969c-5.616 0-14.34880031-2.18560031-19.344-4.8384 0 0-12.94720031-7.488-24.80320031-12.47680031-35.4144-15.28960031-75.6672-24.02560031-118.56639938-24.02559938-42.59200031 0-82.84159969 8.57920031-118.09600031 23.712-12.01279969 5.1456-25.27360031 12.79039969-25.27360031 12.79039969-4.992 2.80960031-13.5744 4.99519969-19.344 4.8384l-16.06719938-0.15679969c-64.7424-8.5824-132.76159969-65.9904-152.26240031-128.08000031 0 0-20.74879969-41.96479969-23.71519969-124.33600031-0.15679969-10.7616 8.42560031-24.336 19.50079969-30.10879969 0 0 110.29759969-70.82560031 334.47679969-70.82560031 224.33599969 0 334.47679969 70.82560031 334.47680062 70.82560031 10.92160031 5.92960031 19.81120031 20.90560031 19.50079969 30.4224-2.80639969 82.0608-22.93120031 122.31040031-22.93120031 122.31040031-17.78239969 62.39680031-86.73919969 120.27520031-151.32799969 129.792z m174.7296-252.73280062v0.46720031-0.46720031z m0-1.09119938v0.7776-0.7776z"  horiz-adv-x="1024" />

    
    <glyph glyph-name="zoushi" unicode="&#58911;" d="M908.2 720.7v1.4h-1.4l0.4-0.4c0.4-0.3 0.7-0.6 1-1zM936.5 191.8H85.9c-11 0-19.9-11.2-19.9-25s8.9-25 19.9-25h850.6c11 0 19.9 11.2 19.9 25-0.1 13.8-9 25-19.9 25zM107.3 363.5l250.2 181L562.6 348l344.3 338.4c0.5 0.5 1 1.1 1.5 1.7l0.6-69.2c0.1-13.7 11.3-24.8 25-24.8h0.2c13.8 0.1 24.9 11.4 24.8 25.2l-1.2 153-163.9-0.3c-13.8 0-25-11.2-25-25s11.2-25 25-25l78 0.1-0.1-0.1-309.7-304.4L362 609.4 78 404c-11.2-8.1-13.7-23.7-5.6-34.9s23.7-13.7 34.9-5.6z m800.9 358.6v-1.4c-0.3 0.4-0.6 0.7-1 1l-0.4 0.4h1.4z"  horiz-adv-x="1024" />

    
    <glyph glyph-name="dingwei" unicode="&#58889;" d="M512-9.299999999999955c-9.45 0-14.4 1.35-18 4.95-1.8 2.25-202.05 239.4-255.15 354.6-19.35 40.95-29.25 85.95-29.25 129.6 0 164.25 135.45 298.35 302.4 298.35s302.4-134.55 302.4-300.15c0-49.95-9.45-87.75-32.4-130.5-63.45-117.9-250.2-348.75-252-351-2.25-2.7-6.3-5.4-17.55-5.4l-0.45-0.45z m0 621c-73.8 0-133.65-59.85-133.65-133.65s59.85-133.65 133.65-133.65 133.65 59.85 133.65 133.65-59.85 133.65-133.65 133.65z"  horiz-adv-x="1024" />

    
    <glyph glyph-name="xing" unicode="&#58901;" d="M896.35480118 428.72405434c-55.82221985-67.99567223-154.53309059-180.24882317-154.53309059-180.24882317s16.14475251-123.24857712 25.19353866-207.43612289c3.93190384-42.88015366-26.98104859-61.4218998-61.99121475-44.70783235-66.61989212 33.4675312-167.99657822 85.31845093-190.80162048 97.00215341-23.20827485-11.56396866-125.60462951-62.56130218-192.91279793-95.95004081-35.41339874-16.67467118-66.69791221 1.86630249-62.71965981 44.66843604 9.16851998 84.06085969 25.47858238 207.19047547 25.47858239 207.19047546S184.22676277 361.25830078 127.7564354 429.16745567c-19.95769501 24.66362-7.14308738 59.72090721 32.20993995 66.16799355 80.24868965 15.1714325 204.63589668 39.35302734 204.63589668 39.35302733s68.03506851 125.39992332 111.08207704 202.19950677C499.37542153 783.62124825 515.76504897 778.22550202 518.56604767 776.84972191c7.301445-2.5151825 18.82601738-11.60413742 33.87153626-40.00113488 42.55648613-76.91854478 109.82448577-202.48455047 109.82448578-202.48455046s122.92413712-24.18159485 202.23890304-39.39242364c38.87872697-6.48648262 51.57437324-41.5839386 31.85460091-66.24755859z"  horiz-adv-x="1024" />

    
    <glyph glyph-name="google" unicode="&#59267;" d="M885.99999969 420h-366.79999969v-109.2h260.4c-13.2-152.4-139.99999969-217.60000031-259.99999969-217.60000031C366.39999969 93.19999969000003 231.99999969 214.00000031000002 231.99999969 384c0 163.99999969 127.99999969 290.80000031 288 290.80000031 123.6 0 196.00000031-78.79999969 196.00000031-78.80000062L792.00000031 675.19999969S694.4 784.00000031 516.00000031 784.00000031C288.8 784.00000031 113.19999969 592.00000031 113.19999969 384c0-202.00000031 165.19999969-400.00000031 408.80000062-400.00000031 214.00000031 0 370.00000031 146.80000031 369.99999938 363.6 0 46.00000031-6 72.40000031-6 72.40000031z"  horiz-adv-x="1024" />

    
    <glyph glyph-name="google-play" unicode="&#59276;" d="M195.83333333 65.24999971v637.50000058c0 22.12499971 12.75000029 41.625 31.5 50.625L596.70833362 384l-369.37500029-369.37500029c-18.74999971 9.37500029-31.5 28.50000029-31.5 50.625m517.87500029 201.75000029L310.20833304 33.74999971l318.375 318.375 85.12500058-85.12499971m125.62499971 161.62499971c12.75000029-10.125 22.12499971-25.875 22.12499971-44.62499971s-8.25000029-33.75-21.375-44.25000029l-85.87499942-49.5-93.75000029 93.75000029 93.75000029 93.75000029 85.12499971-49.12500058M310.20833304 734.25000029l403.50000058-233.25000029-85.12500058-85.12499971-318.375 318.375z"  horiz-adv-x="1024" />

    
    <glyph glyph-name="telegram" unicode="&#59611;" d="M417.28 100.26666699999998l11.946667 180.48 327.68 295.253333c14.506667 13.226667-2.986667 19.626667-22.186667 8.106667L330.24 328.53333299999997 155.306667 384c-37.546667 10.666667-37.973333 36.693333 8.533333 55.466667l681.386667 262.826666c31.146667 14.08 61.013333-7.68 49.066666-55.466666l-116.053333-546.56c-8.106667-38.826667-31.573333-48.213333-64-30.293334L537.6 200.53333299999997l-84.906667-82.346666c-9.813333-9.813333-17.92-17.92-35.413333-17.92z"  horiz-adv-x="1024" />

    
    <glyph glyph-name="wechat" unicode="&#58986;" d="M642.68237305 502.73474122c8.48693848 0 16.80908203-0.65917969 25.13122559-1.56555177-22.5769043 105.30395508-135.13183594 183.49914551-263.67187501 183.49914552C260.52294922 684.6683349699999 142.859375 586.78015137 142.859375 462.44238281c0-71.76818848 39.13879395-130.68237305 104.56237793-176.41296387l-26.11999512-78.60717772L312.59814453 253.23522949000005c32.711792-6.50939942 58.91418458-13.10119629 91.54357911-13.10119629 8.15734864 0 16.31469727 0.41198731 24.38964843 1.071167-5.10864258 17.46826172-8.07495117 35.76049805-8.07495118 54.71191406 0.08239747 114.20288086 98.05297852 206.81762695 222.22595216 206.81762695z m-140.48767091 70.86181639c19.69299317 0 32.711792-12.93640137 32.711792-32.62939453 0-19.6105957-13.01879883-32.711792-32.71179199-32.71179199-19.6105957 0-39.22119141 13.10119629-39.2211914 32.71179199-0.08239747 19.69299317 19.6105957 32.62939453 39.2211914 32.62939453z m-182.92236327-65.34118652c-19.6105957 0-39.38598633 13.10119629-39.38598634 32.71179199 0 19.69299317 19.77539063 32.62939453 39.38598633 32.62939453 19.6105957 0 32.62939453-12.93640137 32.62939453-32.62939453 0-19.6105957-13.01879883-32.711792-32.62939453-32.71179199zM881.140625 299.04821776999995C881.140625 403.52819825 776.57824707 488.64477539 659.16186523 488.64477539c-124.33776856 0-222.22595215-85.11657715-222.22595215-189.59655762 0-104.64477539 97.88818359-189.59655762 222.22595215-189.59655761 26.03759766 0 52.3223877 6.59179688 78.44238282 13.10119629l71.68579101-39.22119142-19.6105957 65.25878908c52.40478516 39.38598633 91.46118164 91.54357911 91.46118164 150.45776366z m-293.99414063 32.711792c-13.01879883 0-26.11999512 12.93640137-26.11999512 26.11999512 0 13.01879883 13.10119629 26.11999512 26.11999513 26.11999511 19.77539063 0 32.711792-13.10119629 32.71179199-26.11999511 0-13.18359375-12.93640137-26.11999512-32.71179199-26.11999512z m143.70117188 0c-12.93640137 0-25.9552002 12.93640137-25.9552002 26.11999512 0 13.01879883 13.01879883 26.11999512 25.9552002 26.11999511 19.6105957 0 32.711792-13.10119629 32.711792-26.11999511 0-13.18359375-13.10119629-26.11999512-32.711792-26.11999512z"  horiz-adv-x="1024" />

    
    <glyph glyph-name="erweima" unicode="&#59317;" d="M256 640h73.143v-73.143H256V640zM841.143 54.857h73.143v-73.143h-73.143v73.143zM841.143 201.143H768V347.429H548.571V-18.286h73.143V274.286h73.143V128h219.429V347.429h-73.143zM694.857 54.857H768v-73.143h-73.143v73.143zM109.714 420.571H475.43V786.286H109.714V420.57z m73.143 292.572h219.429v-219.429H182.857V713.143zM256 201.143h73.143V128H256v73.143zM109.714-18.286H475.43V347.43H109.714v-365.715z m73.143 292.572h219.429v-219.429H182.857V274.286zM694.857 640H768v-73.143h-73.143V640zM548.571 786.286V420.57h365.715V786.286H548.57z m292.572-292.572H621.714V713.143h219.429v-219.429z"  horiz-adv-x="1024" />

    
    <glyph glyph-name="taiyang" unicode="&#58895;" d="M298.7 219.8l-52.3-52.3c-9.6-9.6-9.6-25.3 0-34.9 9.6-9.6 25.3-9.6 34.9 0l52.3 52.3c9.6 9.6 9.6 25.3 0 34.9-9.6 9.6-25.3 9.6-34.9 0z m-15 372.7c9.7-9.7 25.5-9.7 35.2 0 9.7 9.7 9.7 25.5 0 35.2l-52.8 52.8c-9.7 9.7-25.5 9.7-35.2 0-9.7-9.7-9.7-25.5 0-35.2l52.8-52.8z m-69.9-168.8h-74.7c-13.8 0-24.9-11.1-24.9-24.9 0-13.8 11.2-24.9 24.9-24.9h74.7c13.8 0 24.9 11.1 24.9 24.9 0 13.7-11.2 24.9-24.9 24.9z m298.8 249c13.8 0 24.9 11.1 24.9 24.9v74.7c0 13.8-11.1 24.9-24.9 24.9s-24.9-11.1-24.9-24.9v-74.7c0-13.8 11.2-24.9 24.9-24.9z m239.6-69.2l52.3 52.3c9.6 9.6 9.6 25.3 0 34.9-9.6 9.6-25.3 9.6-34.9 0l-52.3-52.3c-9.6-9.6-9.6-25.3 0-34.9 9.6-9.7 25.3-9.7 34.9 0z m133.9-179.8h-74.7c-13.8 0-24.9-11.1-24.9-24.9 0-13.8 11.1-24.9 24.9-24.9h74.7c13.8 0 24.9 11.1 24.9 24.9 0 13.7-11.1 24.9-24.9 24.9zM741.5 205.1c-9.7 9.7-25.5 9.7-35.2 0-9.7-9.7-9.7-25.5 0-35.2l52.8-52.8c9.7-9.7 25.5-9.7 35.2 0 9.7 9.7 9.7 25.5 0 35.2l-52.8 52.8zM512.6 623c-123.9 0-224.3-100.4-224.3-224.3s100.4-224.3 224.3-224.3 224.3 100.4 224.3 224.3S636.5 623 512.6 623z m0-498.1c-13.8 0-24.9-11.1-24.9-24.9v-74.7c0-13.8 11.1-24.9 24.9-24.9s24.9 11.1 24.9 24.9V100c0 13.7-11.1 24.9-24.9 24.9z"  horiz-adv-x="1024" />

    
    <glyph glyph-name="tianjia-yin" unicode="&#59023;" d="M512 763.6875c-209.25 0-379.6875-170.4375-379.6875-379.6875s170.4375-379.6875 379.6875-379.6875S891.6875 174.75 891.6875 384s-170.4375 379.6875-379.6875 379.6875zM706.0625 367.125h-168.75v-168.75c0-10.125-6.75-16.875-16.875-16.875s-16.875 6.75-16.875 16.875v168.75h-168.75c-10.125 0-16.875 6.75-16.875 16.875s6.75 16.875 16.875 16.875h168.75v168.75c0 10.125 6.75 16.875 16.875 16.875s16.875-6.75 16.875-16.875v-168.75h168.75c10.125 0 16.875-6.75 16.875-16.875s-6.75-16.875-16.875-16.875z"  horiz-adv-x="1024" />

    
    <glyph glyph-name="download" unicode="&#58959;" d="M894.8 191.8h-3.2c-34.8 0-63-28.2-63-63v-64.7H192v64.7c0 34.8-28.2 63-63 63-35.5 0-64.6-29.1-64.6-64.6v-99.6c0-50.1 41-91.1 91.1-91.1h712.6c50.1 0 91.1 41 91.1 91.1v99.6c0.1 35.5-28.9 64.6-64.4 64.6zM248.2 519.7c24.9 24.9 65.6 24.9 90.5 0l111.6-111.6V768c0 34.5 28.3 62.8 62.8 62.8s62.8-28.3 62.8-62.8v-358.5L686 519.6c24.9 24.9 65.6 24.9 90.5 0 24.9-24.9 24.9-65.6 0-90.5L557.6 210.4c-12.5-12.5-28.9-18.7-45.3-18.7s-32.8 6.2-45.3 18.7L248.2 429.2c-24.9 24.9-24.9 65.6 0 90.5z"  horiz-adv-x="1024" />

    
    <glyph glyph-name="reddit-alien" unicode="&#59136;" d="M907.46176673 381.76678592999997A87.71287686 87.71287686 0 0 0 859.35386729 303.20655776c3.53111383-13.67247411 5.28254679-27.79693098 5.2825468-42.37337062 0-139.46488642-157.5724399-252.4605407-351.78372087-252.46054071-193.7592982 0-351.33173811 112.99565428-351.33173733 252.46054071 0 14.12445689 1.77968165 28.24891376 4.8588127 41.49765378A88.56034427 88.56034427 0 0 0 116.4921875 381.76678592999997a87.76937423 87.76937423 0 0 0 151.83791033 60.02894139c59.57695859 41.49765378 139.04115232 68.41886868 227.31900744 71.4980005L546.86438524 743.268133a15.45215575 15.45215575 0 0 0 18.10755348 11.46905837l162.88323538-35.7631242a66.01771062 66.01771062 0 0 0 124.91669621-29.57661263 66.10245744 66.10245744 0 0 0-66.21545372-66.21545372 65.93296457 65.93296457 0 0 0-65.76347015 65.76347095l-147.4310804 32.65574444-45.90448449-208.33573784c88.72983713-2.65539774 169.04149827-29.12462986 229.07044041-70.62228364a86.52642217 86.52642217 0 0 0 63.10807242 26.92121489A87.76937423 87.76937423 0 0 0 907.46176673 381.73853726000004zM300.98584153 293.94091357a66.04596007 66.04596007 0 0 1 65.76347092-66.21545292 66.10245744 66.10245744 0 0 1 66.21545372 66.21545292A66.04596007 66.04596007 0 0 1 366.74931245 359.70438452999997a65.93296457 65.93296457 0 0 1-65.76347092-65.76347094z m357.51825044-156.69672301a15.73464489 15.73464489 0 0 1 0 22.9381175 15.98888535 15.98888535 0 0 1-22.5143842 0c-26.4974808-26.9212149-83.41904166-36.18685831-124.04097934-36.1868583s-97.54349854 9.26564341-124.04097933 36.1868583a15.98888535 15.98888535 0 0 1-22.5143842 0 15.73464489 15.73464489 0 0 1 0-22.9381175c41.92138788-41.92138788 122.71328047-45.02876839 146.52711409-45.02876838s104.60572699 3.07913183 146.52711484 45.02876838z m-1.29945019 90.48127009a66.04596007 66.04596007 0 0 1 65.76347093 66.21545294A65.93296457 65.93296457 0 0 1 657.20464178 359.70438452999997a66.04596007 66.04596007 0 0 1-66.21545371-65.76347094 66.10245744 66.10245744 0 0 1 66.21545371-66.21545294z"  horiz-adv-x="1024" />

    
    <glyph glyph-name="youtube-play" unicode="&#59235;" d="M435.72746573 287.99224386000003l200.27879998 103.45001221-200.27879998 104.69480304v-208.14481525zM512.2953063 644.71733757c156.02253525 0 259.47254747-7.44225607 259.47254747-7.44225679 14.48723899-1.66854859 46.34857177-1.66854859 74.47553352-31.46405891 0 0 22.75052742-22.35325425 29.37175258-73.65450188 7.86601455-60.01477912 7.44225607-120.00307366 7.44225607-120.00307293v-56.2804088s0.42375847-60.01477912-7.44225607-120.00307366c-6.62122443-50.90397446-29.37175185-73.65450188-29.37175258-73.65450189-28.12696174-29.37175185-60.01477912-29.37175185-74.47553352-31.04030042 0 0-103.45001221-7.86601455-259.47254747-7.86601455-192.83654318 1.66854859-252.03029068 7.44225607-252.03029067 7.44225607-16.55306145 2.88685411-53.79082785 2.06582175-81.9442749 31.46405891 0 0-22.75052742 22.75052742-29.37175185 73.65450188C141.08297433 295.88474371999996 141.50673208 355.87303826000004 141.50673208 355.87303826000004v56.2804088s-0.42375847 60.01477912 7.4422568 120.00307293C155.57021331 583.45776833 178.32074073 605.81102187 178.32074073 605.81102187 206.44770247 635.60653219 238.33551985 635.60653219 252.79627424 637.27508078c0 0 103.45001221 7.44225607 259.47254748 7.4422568z"  horiz-adv-x="1024" />

    
    <glyph glyph-name="favorite" unicode="&#58892;" d="M736.3270874 32.368835450000006c-5.56182862 0-11.74163818 1.23596192-16.68548584 3.70788574l-199.60784912 99.49493408-195.28198242-108.14666748c-14.21356201-8.03375244-32.13500977-4.3258667-43.258667 7.41577149-6.79779052 7.41577148-9.88769531 17.92144776-8.65173339 28.42712402l33.37097168 220.61920166L142.44738769 436.52838135C132.55969238 445.7980957 128.85180664 459.39367676 133.17767334 472.37127685c3.70788575 12.9776001 14.21356201 22.24731445 27.80914307 24.10125733l220.61920166 37.07885743L475.53912354 736.2491455100001c5.56182862 11.74163818 17.3034668 19.77539063 30.28106689 20.39337158 13.59558106 0.61798096 25.9552002-6.79779052 32.13500976-18.53942871l103.20281983-198.37188721 221.85516357-27.19116211c13.59558106-1.85394287 24.10125732-10.50567627 28.42712403-23.48327637 4.3258667-12.35961914 1.23596192-26.57318115-8.03375244-35.8428955L727.05737305 293.15679932l42.64068603-219.38323975c1.85394287-9.88769531-0.61798096-20.39337158-6.79779053-28.42712402-6.79779052-8.03375244-16.68548584-12.9776001-26.57318115-12.9776001zM518.79779052 173.26849364999998c5.56182862 0 11.74163818-1.23596192 16.68548585-3.70788574l197.13592529-98.25897217-42.02270508 216.29333496c-2.47192383 11.12365723 1.23596192 22.86529541 9.26971436 30.89904786l154.49523926 156.96716308L635.59619141 502.65234375c-11.12365723 1.23596192-21.62933349 8.6517334-26.57318115 18.53942872L507.6741333 716.47375489 414.35900878 516.86590576c-4.94384766-10.50567627-14.83154297-17.92144776-25.95520019-19.77539063L170.87451172 461.24761963l160.67504883-150.16937256c8.6517334-8.03375244 12.35961914-19.15740967 10.50567627-30.89904785L309.30224609 62.64990234000004l192.8100586 106.29272461c5.56182862 2.47192383 11.12365723 3.70788575 16.68548583 4.3258667z"  horiz-adv-x="1024" />

    
    <glyph glyph-name="shouji" unicode="&#58912;" d="M724.87373047-8.596874999999955H297.65234375c-39.32578125 0-71.20371094 31.87792969-71.20371094 71.20371094V703.43847656c0 39.32578125 31.87792969 71.20371094 71.20371094 71.20371094h427.22138672c39.32578125 0 71.20371094-31.87792969 71.20371094-71.20371094v-640.83164062c0-39.32666016-31.87792969-71.20371094-71.20371094-71.20371094z m0 712.03535156H297.65234375v-640.83164062h427.22138672V703.43847656z m-71.20371094-534.02695312H368.85605469v462.82324219h284.81396484v-462.82324219z m-106.80556641-71.20371094h-71.20371093v35.60185547h71.20371093v-35.60185547z"  horiz-adv-x="1024" />

    
    <glyph glyph-name="xinxi" unicode="&#58925;" d="M509.979-63.316c-247.308 0-447.794 200.486-447.794 447.794S262.671 832.272 509.979 832.272s447.794-200.486 447.794-447.794-200.485-447.794-447.794-447.794z m0 814.171c-202.346 0-366.377-164.031-366.377-366.377s164.031-366.377 366.377-366.377c202.342 0 366.377 164.031 366.377 366.377S712.321 750.855 509.979 750.855z m-40.708-610.628c-40.709 0-40.709 40.708-40.709 40.708l40.709 203.543s0 40.709-40.709 40.709c0 0-40.709 0-40.709 40.709h122.126s40.709 0 40.709-40.709-40.709-162.834-40.709-203.543 40.709-40.709 40.709-40.709h40.709c-0.001 0-0.001-40.708-122.126-40.708z m81.417 407.085c-22.483 0-40.709 18.225-40.709 40.709s18.225 40.709 40.709 40.709 40.709-18.225 40.709-40.709-18.226-40.709-40.709-40.709z"  horiz-adv-x="1024" />

    
    <glyph glyph-name="yonghu1" unicode="&#58987;" d="M512 776c14.5 0 29.3-1.6 43.9-4.6 78.4-16.4 141.7-84 153.7-164.2 12.3-82-24.4-159.5-95.8-202.2-18.1-10.8-28.6-30.9-27.2-52 1.5-21.1 14.6-39.5 34.1-47.7 115.8-48.9 198.6-169 215.5-313.3H187.3c17.4 144.3 100.1 264.4 215.9 313.3 19.4 8.2 32.6 26.7 34.1 47.7 1.5 21.1-9 41.1-27.2 52-61.4 36.7-98.1 100.6-98.1 171 0 110.3 89.7 200 200 200m0 56c-141.4 0-256-114.6-256-256 0-93.5 50.6-174.4 125.5-219.1C250 301.3 151.7 164.8 131.7-1.3c-4-33.3 22.5-62.7 56-62.7h648.5c33.5 0 60 29.4 56 62.7-20 166.1-118.2 302.7-249.7 358.2 85.2 50.9 139 148.7 122.5 258.6-15.5 103.1-95.5 189.3-197.6 210.7-18.8 3.9-37.3 5.8-55.4 5.8z"  horiz-adv-x="1024" />

    
    <glyph glyph-name="lianjie" unicode="&#58992;" d="M898.13333375 177.06666656000004c-2.13333375 51.19999969-23.46666656 98.13333375-61.8666675 136.53333375l-61.86666656 61.86666657c-19.2 19.2-51.19999969 19.2-70.39999969 0-19.2-19.2-19.2-51.19999969 0-70.40000063l61.86666656-61.86666656c19.2-19.2 31.99999969-44.80000031 31.99999969-70.39999969 0-17.06666625-2.13333375-42.66666656-23.46666656-64.00000031-19.2-19.2-42.66666656-23.46666656-59.73333281-23.46666656-25.60000031 0-53.33333344 12.79999969-74.66666719 32.00000062l-155.73333282 155.73333281c-38.4 38.4-42.66666656 98.13333375-8.53333312 132.26666719 19.2 19.2 19.2 51.19999969 0 70.39999969-19.2 19.2-51.19999969 19.2-70.40000063 0-36.26666625-36.26666625-53.33333344-81.06666656-53.33333343-130.13333344 0-51.19999969 21.33333375-104.53333312 61.86666656-145.06666687l155.73333375-155.73333282c38.4-38.4 91.73333344-61.86666656 145.06666687-61.86666656 49.06666688 0 96 19.2 130.13333344 53.3333325 38.4 38.4 57.6 89.59999969 53.33333344 140.80000031z m0 0M322.13333375 439.46666625c-2.13333375 0-2.13333375 0 0 0l-42.6666675 42.6666675-21.33333281 21.33333281c-19.2 19.2-31.99999969 42.66666656-34.13333344 68.26666688 0 17.06666625 2.13333375 42.66666656 23.46666656 64.00000031 19.2 19.2 42.66666656 23.46666656 59.73333375 23.46666656 25.60000031 0 53.33333344-10.66666687 74.66666625-32.00000062l155.73333375-155.73333282c38.4-38.4 42.66666656-98.13333375 8.53333313-132.26666718-19.2-19.2-19.2-51.19999969 0-70.39999969 19.2-19.2 51.19999969-19.2 70.39999968 0 36.26666625 36.26666625 53.33333344 81.06666656 53.33333344 130.13333344 0 51.19999969-21.33333375 104.53333312-61.86666656 145.06666687l-155.73333375 155.73333281c-38.4 38.4-91.73333344 61.86666656-145.06666594 61.86666657-49.06666688 0-96-19.2-130.13333343-53.33333344-36.26666625-36.26666625-55.46666625-87.46666687-53.33333344-138.66666656 2.13333375-51.19999969 23.46666656-98.13333375 61.86666656-136.53333282l21.33333375-21.33333375 40.53333281-42.66666656c19.2-19.2 51.19999969-19.2 70.39999969 0 21.33333375 19.2 23.46666656 51.19999969 4.2666675 70.39999969z m0 0"  horiz-adv-x="1024" />

    
    <glyph glyph-name="cha" unicode="&#58903;" d="M512 13.211425780000013C308.06628417 13.211425780000013 141.21142578 180.06628417000002 141.21142578 384S308.06628417 754.78857422 512 754.78857422s370.78857422-166.8548584 370.78857422-370.78857422-166.8548584-370.78857422-370.78857422-370.78857422z m43.25866675 370.78857422l108.14666796 108.14666724-43.25866747 43.25866747-108.14666724-108.14666796-108.14666724 108.14666796-43.25866747-43.25866747 108.14666796-108.14666724-108.14666796-108.14666724 43.25866747-43.25866747 108.14666724 108.14666796 108.14666724-108.14666796 43.25866747 43.25866747-108.14666796 108.14666724z"  horiz-adv-x="1024" />

    
    <glyph glyph-name="yueliang" unicode="&#59064;" d="M505.4 17.4c-196.7 0-358 150.9-374.9 343.1 1 18.6 16.1 33.4 34.9 33.4 10.8 0 20.5-4.8 26.9-12.4 0.2-0.3 0.5-0.1 0.5 0.7 41.6-44.2 100.5-71.9 166.1-71.9 127.1 0 230.1 103 230.1 230.1 0 66.1-28 125.1-72.6 166.8 0.1 0.1 0.5 0.1 0.3 0.3-7 6.5-11.4 15.7-11.4 26.1 0 19 14.9 34.1 33.7 35.3 192.1-17.1 342.9-178.3 342.9-375 0-208-168.5-376.5-376.5-376.5z"  horiz-adv-x="1024" />

    
    <glyph glyph-name="guojia" unicode="&#58974;" d="M886.8 542.4c-20.5 48.4-49.8 92-87.2 129.3-37.4 37.4-80.9 66.7-129.3 87.2-50.2 21.2-103.5 32-158.4 32s-108.2-10.8-158.4-32c-48.4-20.5-92-49.8-129.3-87.2-37.4-37.4-66.7-80.9-87.2-129.3-21.2-50.2-32-103.5-32-158.4s10.8-108.2 32-158.4c20.5-48.4 49.8-92 87.2-129.3 37.4-37.4 80.9-66.7 129.3-87.2 50.2-21.2 103.5-32 158.4-32s108.2 10.8 158.4 32c48.4 20.5 92 49.8 129.3 87.2 37.4 37.4 66.7 80.9 87.2 129.3 21.2 50.2 32 103.5 32 158.4s-10.7 108.2-32 158.4zM713.9 352.7l21.2-43.8-38.9-33.6 2.8-13.2c3.2-15.4 6.6-33.5 8.2-44.2-3-2.7-6.9-6.3-12.1-11-7.5-6.8-20.6-18.7-31.8-28.6-2 8.2-4.3 19.3-7 34.3-4.4 25-7.4 47.8-7.4 48.1l-0.4 3.4-0.7 1.5-19.2 70.8-49.1-8.8-27.6 23.3 22.6 36.7-4.7 48.8c8.8 8.6 17.7 16.9 21.1 19.5 11.8 6.3 13.8 19.9 14.8 26.6 0.8 5.4 1.5 12.6 2 21.4 0.5 7.3 0.7 14.4 0.9 19.8l38.1 40.5 143.8 49.3c42.8-51.9 71.4-115.8 79.9-185.9L752.9 424l-39-71.3z m29.8-163.9c-0.2-0.2-0.5-0.3-0.6-0.4 0.2 0.1 0.4 0.2 0.6 0.4zM232.6 612c1.3-3.4 2.7-7.1 4-10.5 8.9-24 17.3-46.7 34.4-55.8 10-5.3 46-19.8 73.4-30.6-8.3-8.9-18-19.5-27.7-30.7-43.9-50.7-53.7-73-52-89.3-3.9-3.2-12.7-7.2-22.4-10.5l-41.9 67-33.2 38.5c13.8 45.1 36.3 86.3 65.4 121.9z m117-550.2l-2.7 68.1 20.1 78-23.3 54.3 4.8 11.7 39.4-14.4 71.8-51.2-53-36.9-40.2-117.5c-5.8 2.5-11.4 5.1-16.9 7.9zM512 23.2c-35.6 0-69.9 5.2-102.4 14.8l35.7 104.2 94.2 65.6-130 92.7-86.6 31.6-29.2-70.3 24.7-57.7-17.9-69.3 1.8-44.4C210.9 155.9 151.2 263.1 151.2 384c0 17 1.2 33.8 3.5 50.2l8.5-9.9 57.6-92.1 15.7 3.3c0.5 0.1 12.5 2.6 26 7.6 21.2 7.8 35.1 17.2 42.6 29 5.1 8.1 7.1 17.1 5.7 26.1 1.5 4.1 9 20.3 45.2 61.4 22.6 25.7 44.9 48 45.1 48.2l25 25-33 12.7c-32.4 12.5-86.7 34-99.3 40.3-4.1 4.9-10.5 22.3-14 31.8-4.3 11.5-8.3 22.5-13.1 30.8 64.4 59.9 150.7 96.6 245.5 96.6 93.8 0 179.3-35.9 243.5-94.8l-134.6-46.1-58-61.6-0.2-8.9c-0.3-14.9-1.3-33.9-2.5-43.2-6-4.9-15.3-13.5-30.7-28.9l-7.7-7.7 5.3-55.1-35.4-57.3 74.4-62.7 28.9 5.2 8.3-30.6c0.8-6.2 3.9-28.6 8.3-52.6 10.4-57 18.1-68.6 24.6-75.1 3.8-3.8 9.7-6.9 16.6-6.9 3.9 0 8.2 1 12.7 3.3 2.2 1.2 4.6 2.7 7.6 4.9 4 3 9.2 7.2 16 13 11.7 10 25.7 22.8 37 33.1 7.3 6.7 15.6 14.2 18 16.1 5.1 3.6 10.6 10.3 10.1 22.7-0.1 2.4-0.4 5.3-0.9 9-0.7 5.3-1.9 12.5-3.5 21.3-1 5.7-2.1 11.3-3.1 16.1l45.2 39.1-26.2 54.2 15 27.4 92.2 2.7c-1.6-197.9-163-358.4-361.1-358.4z"  horiz-adv-x="1024" />

    
    <glyph glyph-name="twitter" unicode="&#58965;" d="M881.36721778 613.61082458a308.99047875 308.99047875 0 0 0-87.28980994-23.94676231 153.19747901 153.19747901 0 0 1 66.8346405 84.13810777c-29.38499451-17.14897156-61.95259118-29.63218665-96.62132287-36.58447313a152.02331543 152.02331543 0 0 1-259.05761695-138.48953248C378.85600258 504.69168091 266.84695458 565.37741065 191.88586402 657.11668419a148.99520898 148.99520898 0 0 1-20.57876587-76.47514342c0-52.83737182 26.88217163-99.27864075 67.60711693-126.56250025a151.52893042 151.52893042 0 0 0-68.84307837 19.03381372v-1.88484216a152.11601258 152.11601258 0 0 1 121.92764235-149.14970398 154.3716433 154.3716433 0 0 0-68.34869337-2.6264193 152.54859901 152.54859901 0 0 1 142.25921606-105.58204651 304.91180444 304.91180444 0 0 0-188.54598998-65.04249549c-12.05062867 0-24.07035803 0.71067787-36.15188599 2.07023645a432.43217468 432.43217468 0 0 1 233.50410461-68.25599695c279.75997925 0 432.55577111 231.61926246 432.55577112 432.15408326 0 6.45790076 0 12.9776001-0.46348573 19.46640015a307.01293945 307.01293945 0 0 1 76.01165773 78.73077416l-1.45225573 0.61798071z"  horiz-adv-x="1024" />

    
    <glyph glyph-name="facebook" unicode="&#58990;" d="M841.87823462 754.78857422H182.12176538C159.53456092 754.78857422 141.21142578 736.46543908 141.21142578 713.8782346200001v-659.75646924C141.21142578 31.503662340000005 159.53456092 13.211425780000013 182.12176538 13.211425780000013h355.15365553v287.17575073H440.59230018v111.88545227h96.68312073V494.92758155c0 95.75614929 58.52279687 147.85194397 143.95866394 147.85194397 40.94123816 0 76.13525414-2.99720788 86.39373779-4.35676575v-100.11291503h-59.35707045c-46.34857177 0-55.37109398-22.27821374-55.37109399-54.72221328v-71.40769982h110.74218727l-14.36805726-112.1635437H652.8996582V13.211425780000013h188.94767786c22.64900231 0 40.94123816 18.29223656 40.94123816 40.9103396V713.8782346200001C882.78857422 736.46543908 864.49633766 754.78857422 841.87823462 754.78857422"  horiz-adv-x="1024" />

    
    <glyph glyph-name="mima" unicode="&#58944;" d="M780.41796875-7.552734379999947H244.109375c-16.78710938 0-30.32226563 13.62304688-30.32226563 30.32226563V407.37890625c0 16.78710938 13.62304688 30.32226563 30.32226563 30.32226563h21.26953125V504.41015625c-0.61523438 7.3828125-1.0546875 14.765625-1.0546875 22.32421875 0 136.93359375 111.00585938 247.93945313 247.93945313 247.93945313s247.93945313-111.00585938 247.93945312-247.93945313v-89.03320313h20.21484375c16.78710938 0 30.32226563-13.62304688 30.32226563-30.32226562v-384.52148438c0.08789063-16.78710938-13.53515625-30.41015625-30.32226563-30.41015624zM497.14648437 191.60742187000005v-69.60937499h30.32226562v69.609375c29.00390625 6.85546875 50.625 32.87109375 50.625 63.98437501 0 36.29882813-29.44335938 65.7421875-65.74218749 65.74218749s-65.7421875-29.44335938-65.7421875-65.74218749c-0.08789063-31.11328125 21.53320313-57.12890625 50.53710938-63.98437501z m197.31445313 333.10546876v2.02148437c0 100.63476563-81.5625 182.109375-182.109375 182.10937501s-182.109375-81.5625-182.109375-182.10937501v-89.03320313h364.30664063v87.01171876z"  horiz-adv-x="1024" />

    
    <glyph glyph-name="jiantougreen" unicode="&#58881;" d="M548.2-50.200000000000045v736l180.9-187.9c4.8-4.8 12.6-4.8 17.4 0l37.8 37.8c4.8 4.8 4.8 12.6 0 17.4L556.6 789.6c-0.2 0.3-0.5 0.5-0.7 0.8l-1.3 1.3-35.1 36.5c-2.6 2.6-6 3.8-9.4 3.6-3.4 0.2-6.8-1-9.4-3.6l-36.4-37.8c-0.2-0.2-0.5-0.5-0.7-0.8L235.8 553c-4.8-4.8-4.8-12.6 0-17.4l37.8-37.8c4.8-4.8 12.6-4.8 17.4 0L470.2 684v-734.3c0-6.8 5.5-12.3 12.3-12.3h53.4c6.8 0.1 12.3 5.6 12.3 12.4z"  horiz-adv-x="1024" />

    
    <glyph glyph-name="jiantoured" unicode="&#58882;" d="M471.9 819.5v-736L291 271.4c-4.8 4.8-12.6 4.8-17.4 0l-37.8-37.8c-4.8-4.8-4.8-12.6 0-17.4l227.8-236.6c0.2-0.3 0.5-0.5 0.7-0.8l1.3-1.3 35.1-36.5c2.6-2.6 6-3.8 9.4-3.6 3.4-0.2 6.8 1 9.4 3.6l36.4 37.8c0.2 0.2 0.5 0.5 0.7 0.8l227.8 236.6c4.8 4.8 4.8 12.6 0 17.4l-37.8 37.8c-4.8 4.8-12.6 4.8-17.4 0L549.9 85.20000000000005V819.5c0 6.8-5.5 12.3-12.3 12.3h-53.4c-6.8 0-12.3-5.5-12.3-12.3z"  horiz-adv-x="1024" />

    
    <glyph glyph-name="biyanjing" unicode="&#59649;" d="M479.04101537 317.15283177000003c-27.85034154 1.87866211-55.04150365 6.59179662-81.07910156 13.84277344l-53.92089793-115.62011669a32.72827148 32.72827148 0 0 0-43.6706548-15.65551783 32.95898463 32.95898463 0 0 0-16.08398413 43.50585938l51.74560573 110.97290064a348.93676758 348.93676758 0 0 0-115.02685573 87.04467723 300.2563474 300.2563474 0 0 0-54.51416041 92.18627955 32.95898463 32.95898463 0 1 0 61.89697266 22.6757815 234.40429662 234.40429662 0 0 1 42.64892603-71.91650416C325.55102564 420.64404321 412.36499049 382.08203148999996 507.1550293 382.08203148999996c94.82299805 0 181.63696289 38.59497096 236.1511233 102.10693334a234.40429662 234.40429662 0 0 1 42.64892527 71.91650416 32.95898463 32.95898463 0 0 0 61.89697266-22.6757815 300.2563474 300.2563474 0 0 0-54.51415965-92.18627955 327.28271484 327.28271484 0 0 0-14.50195363-15.8203125l80.61767603-80.61767527a32.95898463 32.95898463 0 0 0-0.23071314-46.37329102 32.72827148 32.72827148 0 0 0-46.37329102-0.23071314l-84.70458959 84.70458959c-15.8203125-10.87646484-32.62939453-20.53344701-50.22949219-28.90502879l51.67968725-110.7421875a32.95898463 32.95898463 0 0 0-16.08398412-43.53881862 32.72827148 32.72827148 0 0 0-43.67065404 15.65551783l-53.85498098 115.52123973a402.09960912 402.09960912 0 0 0-71.02661082-12.98583933v-100.92041067A32.95898463 32.95898463 0 0 0 512 184.32812523999996c-18.32519557 0-32.95898463 14.63378906-32.95898463 32.62939453v100.195312zM252.546875 438.44189477a32.72827148 32.72827148 0 0 0 46.37329102-0.1977539 32.95898463 32.95898463 0 0 0 0.23071314-46.40625026l-93.63647461-93.6364746a32.72827148 32.72827148 0 0 0-46.40625025 0.23071314 32.95898463 32.95898463 0 0 0-0.23071315 46.37329102l93.66943385 93.66943308z"  horiz-adv-x="1024" />

    
    <glyph glyph-name="v" unicode="&#58886;" d="M864.32 746.18666666H644.69333333L344.32 466.18666666V746.18666666H144.32v-79.99999999h80v-600l640 679.99999999z m0 0M683.09333333 429.06666667h121.70666667v-302.93333334c0-17.28 1.49333333-28.37333333 4.48-33.17333333 3.09333333-4.90666667 8.64-8.21333333 16.85333333-10.02666667v-69.97333334H683.09333333v69.97333334c8.53333333 1.92 14.29333333 5.22666667 17.49333334 10.24 3.2 5.01333333 4.69333333 16 4.69333333 32.96V318.55999999999995c0 16.96-1.49333333 27.94666667-4.69333333 32.95999999-3.2 5.01333333-8.96 8.32-17.49333334 10.24000001V429.06666667z m0 0"  horiz-adv-x="1024" />

    
    <glyph glyph-name="v1" unicode="&#58887;" d="M834.61333333 765.44H617.33333333L320.37333333 488.53333333V765.44H122.61333333v-79.14666667h79.14666667v-593.38666667l632.85333333 672.53333334z m0 0M587.46666666 311.67999999999995V422.4c17.38666667 11.73333333 38.61333333 20.90666667 63.57333334 27.62666666 24.96 6.72 50.45333333 10.02666667 76.48 10.02666667 49.49333333 0 85.65333333-8.64 108.48-26.13333333 22.93333333-17.38666667 34.34666667-45.01333333 34.34666666-82.88 0-23.04-4.26666667-42.45333333-12.90666666-58.13333334-8.64-15.68-26.98666667-34.13333333-55.14666667-55.46666666l-93.97333333-71.46666667c-11.09333333-8.53333333-18.34666667-15.68-21.76-21.65333333-3.52-5.97333333-5.22666667-12.90666667-5.22666667-21.12v-3.2h41.92c17.38666667 0 29.12 2.45333333 35.30666667 7.36 6.08 4.8 9.06666667 15.36 9.06666666 31.36v12.69333333h104.85333334v-131.30666667H579.78666666V136.53333333c0 20.37333333 3.2 36.8 9.70666667 49.49333333 6.4 12.58666667 18.98666667 25.92 37.54666667 39.78666667L736.48 308.26666666000006c11.30666667 8.32 19.09333333 15.78666667 23.78666666 22.29333334 4.58666667 6.61333333 6.93333333 13.54666667 6.93333334 21.01333333 0 11.30666667-3.41333333 20.16-10.24 26.45333333-6.93333333 6.29333333-16.42666667 9.49333333-28.90666667 9.49333334-14.61333333 0-26.02666667-4.05333333-34.34666667-12.05333334-8.21333333-8-12.37333333-19.09333333-12.37333333-33.38666666v-30.29333334l-93.86666667-0.10666666z m0 0"  horiz-adv-x="1024" />

    
    <glyph glyph-name="v2" unicode="&#58888;" d="M840.96 764.44444444H623.57333333L326.50666666 484.23111111V764.44444444H128.64v-79.14666667h79.14666666v-593.6L840.96 764.44444444zM588.58666666 328.71111111000005v93.65333333c20.26666667 11.84 42.56 21.01333333 66.98666667 27.2 24.42666667 6.18666667 49.6 9.28 75.73333333 9.28 45.22666667 0 79.78666667-9.70666667 103.68-29.12 23.89333333-19.41333333 35.84-47.25333333 35.84-83.73333333 0-25.06666667-6.08-45.33333333-18.13333333-60.69333334-12.16-15.46666667-30.61333333-26.45333333-55.57333333-33.17333333 25.70666667-3.62666667 45.01333333-13.76 57.81333333-30.29333333 12.90666667-16.53333333 19.30666667-39.46666667 19.30666667-68.69333334 0-40.53333333-12.37333333-71.14666667-37.12-91.73333333C812.16 40.81777777000002 775.46666666 30.57777777000001 726.72 30.57777777000001c-24 0-48.21333333 3.2-72.53333334 9.70666667-24.42666667 6.50666667-47.89333333 15.89333333-70.29333333 28.16v97.92h97.28v-3.2c0-16.21333333 3.94666667-28.58666667 11.84-36.90666667 7.89333333-8.42666667 19.41333333-12.58666667 34.88-12.58666666 14.4 0 25.38666667 4.16 33.06666667 12.58666666 7.57333333 8.32 11.41333333 20.48 11.41333333 36.37333334 0 18.13333333-4.37333333 31.14666667-13.01333333 38.82666666-8.74666667 7.68-24.10666667 11.41333333-46.29333334 11.41333334h-53.76v69.76h57.06666667c18.45333333 0 32.53333333 4.05333333 42.34666667 12.26666666 9.81333333 8.21333333 14.72 19.84 14.72 34.77333334 0 14.72-4.26666667 26.24-13.01333334 34.34666666-8.64 8.10666667-20.69333333 12.16-36.05333333 12.16-13.33333333 0-23.57333333-4.05333333-30.61333333-12.05333333-7.14666667-8-11.2-19.84-12.16-35.62666667h-93.01333334z m0 0"  horiz-adv-x="1024" />

    
    <glyph glyph-name="resize" unicode="&#58885;" d="M98.9 797.8H181v-82.1H98.9V797.8m0-164.1H181v-82.1H98.9v82.1M263.1 797.8h82.1v-82.1h-82.1V797.8m0-164.1h82.1v-82.1h-82.1v82.1M427.2 797.8h82.1v-82.1h-82.1V797.8M98.9 469.5H181v-82.1H98.9v82.1z"  horiz-adv-x="1024" />

    
    <glyph glyph-name="houtui" unicode="&#58899;" d="M230.8608 352l198.8096-198.8096a32 32 0 0 0-45.2608-45.2608l-249.856 249.856a37.12 37.12 0 0 0 0 52.48l249.856 249.8048a32 32 0 0 0 45.2608-45.2608L230.8608 416H870.4a32 32 0 1 0 0-64H230.8608z"  horiz-adv-x="1024" />

    
    <glyph glyph-name="qianjin" unicode="&#58906;" d="M793.1392 352l-198.8096-198.8096a32 32 0 0 1 45.2608-45.2608l249.856 249.856a37.12 37.12 0 0 1 0 52.48l-249.856 249.8048a32 32 0 0 1-45.2608-45.2608l198.8096-198.8096H153.6a32 32 0 1 1 0-64h639.5392z"  horiz-adv-x="1024" />

    
    <glyph glyph-name="log-out" unicode="&#59341;" d="M810.666667 384l-170.666667 170.666667v-128H341.333333v-85.333334h298.666667v-128zM170.666667 725.333333v-682.666666a42.666667 42.666667 0 0 1 42.666666-42.666667h298.666667v85.333333H256V682.666667h256V768H213.333333a42.666667 42.666667 0 0 1-42.666666-42.666667z"  horiz-adv-x="1024" />

    
    <glyph glyph-name="medium-m" unicode="&#61936;" d="M226.95628357 559.66108703c0.92697143 9.11521912-2.62641907 18.23043823-9.42420959 24.41024781L147.85472107 668.116745V680.63085938h216.60232544l167.47283935-367.23518372L679.16384888 680.63085938h206.56013489v-12.51411438l-59.63516236-57.16323853c-5.09834289-3.86238098-7.72476196-10.35118103-6.64329529-16.68548584v-420.22705078c-1.08146667-6.33430481 1.54495239-12.82310486 6.64329529-16.68548584l58.2447052-57.16323852v-12.51411439H591.25605774v12.51411439l60.40763854 58.55369568c5.87081909 5.87081909 5.87081909 7.72476196 5.8708191 16.68548583V515.01196289L489.59819031 88.75959778000004h-22.71080018L271.60540771 515.01196289v-285.66169739c-1.69944763-12.05062867 2.31742859-24.10125732 10.81466675-32.75299072l78.48358155-95.16906738v-12.51411438h-222.47314453v12.35961914L216.91409302 196.59727478000002c8.34274292 8.6517334 12.2051239 20.8568573 10.04219055 32.75299072V559.66108703z"  horiz-adv-x="1024" />

    
    <glyph glyph-name="jiantou-copy" unicode="&#59961;" d="M125.23111856 537.19335153c0 11.66903069 4.77392016 21.78442612 14.32051894 30.34991214 9.54784032 8.56424448 20.90142439 12.81655998 34.06075343 12.75819047L850.94647094 580.30145292c13.09474937 0 24.44833346-4.2523155 34.05951068-12.75819045 9.61117844-8.5071153 14.3850986-18.62251073 14.32051893-30.34991214-0.06457966-11.72367557-4.83849982-21.84155409-14.32051893-30.34742784l-338.66641863-301.75919764c-9.54784032-8.5071153-20.90018285-12.759432-34.06075342-12.759432-13.15932782 0-24.51167035 4.25355825-34.05951068 12.759432l-338.66641862 301.75919764C130.00503873 515.3517974399999 125.23111856 525.46967597 125.23111856 537.19335153z"  horiz-adv-x="1024" />

    
    <glyph glyph-name="tianjia" unicode="&#58900;" d="M512 892C231.9 892 4 664.1 4 384s227.9-508 508-508 508 227.9 508 508S792.1 892 512 892z m0-971.8C256.3-79.8 48.2 128.3 48.2 384S256.3 847.8 512 847.8 975.8 639.7 975.8 384 767.7-79.8 512-79.8zM774.2 384c0-12.2-9.9-22.1-22.1-22.1h-218v-218c0-12.2-9.9-22.1-22.1-22.1-12.2 0-22.1 9.9-22.1 22.1v218h-218c-12.2 0-22.1 9.9-22.1 22.1 0 12.2 9.9 22.1 22.1 22.1h218v218c0 12.2 9.9 22.1 22.1 22.1 12.2 0 22.1-9.9 22.1-22.1v-218h218c12.2 0 22.1-9.9 22.1-22.1z"  horiz-adv-x="1024" />

    
<<<<<<< HEAD
=======
    <glyph glyph-name="copy" unicode="&#58907;" d="M318.125 529.5h583.125V578.0625h-583.125v-48.5625zM123.78124999 723.84375001h583.125V772.40625001h-583.125v-48.56250002z m2e-8-2e-8M123.78124999 189.28124999h48.56250002v583.125H123.78124999v-583.125zM318.125-5.0625H366.6875V578.0625h-48.5625v-583.125z m534.5625 0h48.5625V578.0625h-48.5625v-583.125zM658.25 529.5h48.5625V772.40625001H658.25v-242.90625001z m0 0M123.78124999 189.28124999H366.6875v48.56250002H123.78124999v-48.5625zM318.125-5.0625h583.125v48.5625h-583.125V-5.0625z m0 0"  horiz-adv-x="1024" />

    
>>>>>>> dev


  </font>
</defs>
</svg>
